STARTFONT 2.1
COMMENT
COMMENT Converted from OpenType font "Q:\font stuff\winfont\AmazDooMRightOutline.ttf" by "otf2bdf 3.0".
COMMENT
FONT -FreeType-AmazDooMRightOutline-Medium-R-Normal--72-720-72-72-P-232-ISO10646-1
SIZE 72 72 72
FONTBOUNDINGBOX 46 79 -9 -4
STARTPROPERTIES 19
FOUNDRY "FreeType"
FAMILY_NAME "AmazDooMRightOutline"
WEIGHT_NAME "Medium"
SLANT "R"
SETWIDTH_NAME "Normal"
ADD_STYLE_NAME ""
PIXEL_SIZE 75
POINT_SIZE 720
RESOLUTION_X 72
RESOLUTION_Y 72
SPACING "P"
AVERAGE_WIDTH 232
CHARSET_REGISTRY "ISO10646"
CHARSET_ENCODING "1"
FONT_ASCENT 69
FONT_DESCENT 2
COPYRIGHT "Amazingmax"
_OTF_FONTFILE "Q:\font stuff\winfont\AmazDooMRightOutline.ttf"
_OTF_PSNAME "AmazDooMRightOutline"
ENDPROPERTIES
CHARS 175
STARTCHAR 0020
ENCODING 32
SWIDTH 250 0
DWIDTH 18 0
BBX 0 0 0 0
BITMAP
ENDCHAR
STARTCHAR 0021
ENCODING 33
SWIDTH 138 0
DWIDTH 10 0
BBX 11 59 -1 6
BITMAP
FFE0
4020
4040
4040
4040
4040
4040
4040
4040
4040
4040
4040
4040
4040
4040
4040
4040
4040
4040
4040
4040
4040
4040
4040
4040
4040
4040
4040
4040
4040
4040
4040
4040
4040
4040
4040
4040
4040
4040
4040
3040
0840
4440
6340
58C0
4440
4300
4080
4040
4040
4040
C040
2040
1040
0C40
0240
0140
00C0
0020
ENDCHAR
STARTCHAR 0022
ENCODING 34
SWIDTH 277 0
DWIDTH 20 0
BBX 21 16 -1 49
BITMAP
7FDFF0
405010
405010
405010
405010
405010
405010
806010
C07010
204810
104410
084210
064190
014050
00C030
006018
ENDCHAR
STARTCHAR 0024
ENCODING 36
SWIDTH 319 0
DWIDTH 23 0
BBX 23 60 0 13
BITMAP
01FF80
010080
010080
010080
010080
010080
010080
010080
010080
3F00F0
400008
800004
800002
800002
800002
800002
800002
800002
800002
800002
8000FC
800080
800080
800080
800080
800080
800080
800080
C00080
200060
180018
060006
010002
010002
010002
010002
010002
010002
FF0002
800002
800002
800002
800002
800002
800002
800002
800004
600018
100020
0800C0
040080
030080
010080
010080
00C080
002080
001080
000C80
000280
000180
ENDCHAR
STARTCHAR 0026
ENCODING 38
SWIDTH 347 0
DWIDTH 25 0
BBX 42 44 -9 21
BITMAP
0003FFFF0000
000400010000
000800010000
001000010000
002000010000
002000010000
004000010000
004000010000
004000010000
004000010000
00401E010000
004022010000
004022010000
004022010000
004022010000
004022010000
004022010000
004022010000
004022010000
004022010000
004022010000
004022010000
004022010000
004022010000
004022010000
004022010000
004022010000
004022010000
004022010000
004022010000
004022010000
004022010000
004022010000
004022010000
004022010000
00403E010000
00C000008000
010000006000
020000001000
040000000800
180000000600
200000000100
400000000080
FFFFFFFFFFC0
ENDCHAR
STARTCHAR 0027
ENCODING 39
SWIDTH 152 0
DWIDTH 11 0
BBX 11 16 -1 49
BITMAP
7FC0
4040
4040
4040
4040
4040
4040
8040
C040
2040
1040
0840
0640
0140
00C0
0060
ENDCHAR
STARTCHAR 0028
ENCODING 40
SWIDTH 208 0
DWIDTH 15 0
BBX 13 56 0 9
BITMAP
1FF8
2008
4008
8008
8008
8008
8008
8008
80F0
8080
8080
8080
8080
8080
8080
8080
8080
8080
8080
8080
8080
8080
8080
8080
8080
8080
8080
8080
8080
8080
8080
8080
8080
8080
8080
8080
8080
8080
8080
8080
8080
8040
8020
8018
8008
8008
8008
4008
2008
1008
0808
0408
0208
0108
0090
0060
ENDCHAR
STARTCHAR 0029
ENCODING 41
SWIDTH 194 0
DWIDTH 14 0
BBX 12 56 0 9
BITMAP
FF80
8040
8020
8010
8010
8010
8010
8010
7010
1010
1010
1010
1010
1010
1010
1010
1010
1010
1010
1010
1010
1010
1010
1010
1010
1010
1010
1010
1010
1010
1010
1010
1010
1010
1010
1010
1010
1010
1010
1010
1010
1010
9010
D010
B010
8010
8030
8040
8080
8100
8200
8C00
9000
A000
C000
8000
ENDCHAR
STARTCHAR 002A
ENCODING 42
SWIDTH 250 0
DWIDTH 18 0
BBX 20 21 -1 44
BITMAP
000400
07FC00
040400
040200
080100
F000F0
800020
400040
400040
400040
400040
400040
400040
400040
7000C0
200040
100080
100100
0C0300
07FC00
000400
ENDCHAR
STARTCHAR 002B
ENCODING 43
SWIDTH 250 0
DWIDTH 18 0
BBX 20 21 -1 33
BITMAP
000400
07FC00
040400
040400
040400
FC03F0
800020
400040
400040
400040
400040
400040
400040
400040
7C03C0
040400
040400
040400
040400
07FC00
000400
ENDCHAR
STARTCHAR 002C
ENCODING 44
SWIDTH 152 0
DWIDTH 11 0
BBX 11 22 -1 2
BITMAP
6000
5000
4800
4600
4100
4080
4040
8040
8040
4040
2040
1040
1040
0840
0440
0440
0240
0140
00C0
00C0
0060
0020
ENDCHAR
STARTCHAR 002D
ENCODING 45
SWIDTH 250 0
DWIDTH 18 0
BBX 20 10 -1 39
BITMAP
FFFFF0
800020
400040
400040
400040
400040
400040
400040
400040
7FFFC0
ENDCHAR
STARTCHAR 002E
ENCODING 46
SWIDTH 152 0
DWIDTH 11 0
BBX 11 16 -1 8
BITMAP
6000
5000
4800
4600
4100
4080
4040
8040
4040
2040
1840
0440
0240
0140
00C0
0020
ENDCHAR
STARTCHAR 002F
ENCODING 47
SWIDTH 291 0
DWIDTH 21 0
BBX 21 59 -1 6
BITMAP
003FF8
002010
002020
002020
002020
002020
004040
004040
004040
004040
004040
008080
008080
008080
008080
008080
010100
010100
010100
010100
010100
020200
020200
020200
020200
020200
040400
040400
040400
040400
040400
040800
080800
080800
080800
080800
080800
101000
101000
101000
101000
101000
202000
202000
202000
202000
202000
404000
404000
404000
804000
804000
408000
208000
108000
048000
028000
018000
008000
ENDCHAR
STARTCHAR 0030
ENCODING 48
SWIDTH 333 0
DWIDTH 24 0
BBX 23 57 0 8
BITMAP
1FFFC0
200030
40000C
800004
800004
800004
800004
800004
80FC04
808404
808404
808404
808404
808404
808404
808404
808404
808404
808404
808404
808404
808404
808404
808404
808404
808404
808404
808404
808404
808404
808404
808404
808404
804404
802404
801C04
800404
800004
800004
400004
200004
100004
0C0004
020004
010004
008004
006004
001004
000804
000604
000104
000084
000044
000032
00000A
000006
000002
ENDCHAR
STARTCHAR 0031
ENCODING 49
SWIDTH 236 0
DWIDTH 17 0
BBX 18 60 -1 5
BITMAP
FFFFC0
400080
400100
400100
400100
400100
400100
400100
7F0100
010100
010100
010100
010100
010100
010100
010100
010100
010100
010100
010100
010100
010100
010100
010100
010100
010100
010100
010100
010100
010100
010100
010100
010100
010100
010100
010100
010100
010100
010100
010100
010100
010100
010100
010100
010100
010100
010100
010100
010100
010100
010100
010100
008100
004100
003100
000880
000680
000180
000080
000040
ENDCHAR
STARTCHAR 0032
ENCODING 50
SWIDTH 333 0
DWIDTH 24 0
BBX 25 57 -1 8
BITMAP
FFFFE000
40001800
40000600
40000200
40000200
40000200
40000200
40000200
403E0200
40240200
40280400
7FE80400
00100800
00101000
00201000
00402000
00402000
00804000
00808000
01008000
02010000
02020000
04020000
04040000
08080000
10080000
10100000
20100000
20200000
40400000
40400000
40400000
40400000
40400000
40300000
40080000
40060000
40010000
40008000
60006000
10001000
08000C00
04000200
03000100
00800100
00400100
00300100
00080100
00040100
00030100
00008100
00004100
00003100
00000900
00000500
00000300
00000180
ENDCHAR
STARTCHAR 0033
ENCODING 51
SWIDTH 333 0
DWIDTH 24 0
BBX 25 57 -1 8
BITMAP
FFFFE000
40001800
40000600
40000200
40000200
40000200
40000200
40000200
407F0200
40410200
7FC10200
00010200
00010200
00010200
00010200
00060200
00180200
00200200
00C00200
00800C00
00801000
00806000
00818000
0080C000
00803000
00800C00
00600200
00100200
000C0200
00030200
00010200
00010200
7FC10200
40410200
40210200
40190200
40050200
40030200
40010200
20000200
18000200
04000200
02000200
01000200
00C00200
00200200
00100200
00080200
00060200
00010200
00008200
00006200
00001100
00000900
00000500
00000300
00000080
ENDCHAR
STARTCHAR 0034
ENCODING 52
SWIDTH 333 0
DWIDTH 24 0
BBX 25 59 -1 6
BITMAP
FFC3FF80
40420100
40420200
40420200
40420200
40420200
40420200
40420200
40420200
40420200
40420200
40420200
40420200
40420200
40420200
40420200
40420200
40320200
400E0200
40020200
40000200
60000200
10000200
0C000200
03000200
00800200
00600200
00180200
00040200
00020200
00020200
00020200
00020200
00020200
00020200
00020200
00020200
00020200
00020200
00020200
00020200
00020200
00020200
00020200
00020200
00020200
00020200
00020200
00020200
00020200
00040200
00020200
00018200
00004200
00003200
00000900
00000700
00000100
00000080
ENDCHAR
STARTCHAR 0035
ENCODING 53
SWIDTH 333 0
DWIDTH 24 0
BBX 24 56 -1 9
BITMAP
FFFFE0
400018
400006
400002
400002
400002
400002
400002
407E02
404202
4043FE
404000
404000
404000
404000
404000
404000
404000
404000
406000
401000
400C00
400300
3000C0
0C0030
03000C
008002
006002
001802
7FE602
402202
402202
402202
401202
400A02
400602
400002
400002
400002
200002
180002
040002
020002
010002
00C002
002002
001002
000802
000602
000102
000082
000042
000032
00000A
000006
000003
ENDCHAR
STARTCHAR 0036
ENCODING 54
SWIDTH 333 0
DWIDTH 24 0
BBX 25 57 -1 8
BITMAP
FFFFE000
40001800
40000600
40000200
40000200
40000200
40000200
40000200
407E0200
40420200
40420200
4043FE00
40400000
40400000
40400000
40400000
40400000
40400000
40400000
40400000
40400000
403FFE00
40000200
40000200
40000200
40000200
40000200
40000200
40000200
407E0200
40420200
40420200
40420200
40320200
400A0200
40060200
40020200
40000200
40000200
30000200
08000200
04000200
02000200
01800200
00400200
00200200
00100200
000C0200
00020200
00010200
00008200
00006200
00001100
00000900
00000500
00000300
00000080
ENDCHAR
STARTCHAR 0037
ENCODING 55
SWIDTH 333 0
DWIDTH 24 0
BBX 23 56 -1 9
BITMAP
FFFFE0
400018
400006
400002
400002
400002
400002
400002
403E02
402202
402202
7FE402
000404
000804
000808
000808
001008
001010
001010
002010
002020
004020
004020
004040
008040
008040
008080
010080
010080
020100
020100
020200
040200
040200
080400
080400
080400
100800
100800
100800
201000
201000
401000
402000
402000
402000
404000
404000
408000
408000
408000
430000
440000
480000
500000
600000
ENDCHAR
STARTCHAR 0038
ENCODING 56
SWIDTH 333 0
DWIDTH 24 0
BBX 25 57 -1 8
BITMAP
FFFFFF80
40000100
40000200
40000200
40000200
40000200
40000200
407F0200
40410200
40410200
40410200
40410200
40410200
40410200
40410200
40220200
40140200
40080200
40000200
30000400
08000800
04001000
03006000
06003000
08000800
10000400
60000200
40080200
40140200
40230200
40410200
40410200
40410200
40410200
40410200
40210200
40110200
40090200
40050200
30030200
08000200
04000200
02000200
01800200
00400200
00200200
00100200
000C0200
00020200
00010200
00008200
00006200
00001100
00000900
00000500
00000300
00000080
ENDCHAR
STARTCHAR 0039
ENCODING 57
SWIDTH 333 0
DWIDTH 24 0
BBX 25 57 -1 8
BITMAP
FFFFFF80
40000100
40000100
40000100
40000100
40000100
40000100
40000100
407F0100
40410100
40410100
40410100
40410100
40410100
40410100
40410100
40410100
40310100
400D0100
40030100
40000100
40000100
30000100
08000100
06000100
01800100
00600100
00180100
00040100
00020100
00020100
00020100
00020100
7FC20100
40420100
40420100
40220100
40120100
400E0100
20020100
18000100
04000100
02000100
01000100
00C00100
00200100
00100100
00080100
00060100
00010100
00008100
00004100
00003100
00000900
00000500
00000300
00000100
ENDCHAR
STARTCHAR 003A
ENCODING 58
SWIDTH 152 0
DWIDTH 11 0
BBX 11 30 -1 33
BITMAP
6000
5000
4800
4600
4100
4080
4040
8040
4040
2040
1040
0C40
0240
4140
60C0
5020
4C00
4200
4100
40C0
4040
8040
4040
2040
1840
0440
0240
01C0
0060
0020
ENDCHAR
STARTCHAR 003B
ENCODING 59
SWIDTH 152 0
DWIDTH 11 0
BBX 11 35 -1 28
BITMAP
6000
5000
4800
4600
4100
4080
4040
8040
4040
2040
1040
0C40
0240
4140
60C0
5020
4C00
4200
4100
40C0
4040
8040
4040
4040
2040
1040
0840
0840
0440
0240
0140
00C0
00A0
0060
0020
ENDCHAR
STARTCHAR 003C
ENCODING 60
SWIDTH 250 0
DWIDTH 18 0
BBX 20 21 -1 32
BITMAP
000070
0003A0
001C40
00E040
030040
1C0040
E00040
400040
400040
4000C0
400700
400180
400040
400040
400040
380040
060040
01C040
003840
000640
0001C0
ENDCHAR
STARTCHAR 003D
ENCODING 61
SWIDTH 250 0
DWIDTH 18 0
BBX 20 21 -1 32
BITMAP
FFFFF0
800020
400040
400040
400040
400040
400040
400040
400040
7FFFC0
000000
000000
FFFFE0
400020
400040
400040
400040
400040
400040
400040
7FFFC0
ENDCHAR
STARTCHAR 003E
ENCODING 62
SWIDTH 250 0
DWIDTH 18 0
BBX 19 21 -1 32
BITMAP
C00000
B80000
470000
40E000
401C00
400380
400060
400040
400040
600040
1C0040
180040
600040
400040
400040
400180
400E00
407000
418000
4E0000
700000
ENDCHAR
STARTCHAR 003F
ENCODING 63
SWIDTH 333 0
DWIDTH 24 0
BBX 23 57 -1 8
BITMAP
FFFFE0
400018
400006
400002
400002
400002
400002
400002
403E02
402402
402804
7FE804
001008
001010
002010
004020
004020
008040
008080
010080
010100
020200
040200
040400
080800
080800
101000
201000
202000
404000
404000
404000
404000
404000
404000
404000
404000
404000
304000
084000
444000
634000
58C000
444000
420000
418000
404000
404000
404000
404000
304000
084000
044000
034000
00A000
006000
002000
ENDCHAR
STARTCHAR 0041
ENCODING 65
SWIDTH 333 0
DWIDTH 24 0
BBX 24 58 0 7
BITMAP
0FFFFF
100002
600004
800004
800004
800004
800004
800004
80FC04
808404
808404
808404
808404
808404
808404
808404
808404
808404
808404
808404
80FC04
800004
800004
800004
800004
800004
800004
800004
80FC04
808404
808404
808404
808404
808404
808404
808404
808404
808404
808404
808404
808404
608404
108404
088404
048404
038404
008404
000404
000404
000404
000404
000204
000184
000044
000024
000014
00000E
000002
ENDCHAR
STARTCHAR 0042
ENCODING 66
SWIDTH 333 0
DWIDTH 24 0
BBX 25 57 -1 8
BITMAP
FFFFE000
40001800
40000600
40000200
40000200
40000200
40000200
40000200
407F0200
40410200
40410200
40410200
40410200
40410200
40410200
40460200
40480200
40700200
40400200
40000C00
40001000
40006000
40018000
4000C000
40003000
40000C00
40000200
40600200
40580200
40440200
40430200
40410200
40410200
40210200
40110200
40090200
40070200
40010200
40000200
20000200
18000200
04000200
02000200
01000200
00C00200
00200200
00100200
00080200
00060200
00010200
00008200
00006200
00001100
00000900
00000500
00000300
00000080
ENDCHAR
STARTCHAR 0043
ENCODING 67
SWIDTH 333 0
DWIDTH 24 0
BBX 25 57 -1 8
BITMAP
FFFFE000
40001800
40000600
40000200
40000200
40000200
40000200
40000200
407E0200
40420200
4043FE00
40400000
40400000
40400000
40400000
40400000
40400000
40400000
40400000
40400000
40400000
40400000
40400000
40400000
40400000
40400000
40400000
40400000
40400000
4041FE00
40410200
40410200
40410200
40210200
40190200
40050200
40030200
40010200
40000200
20000200
18000200
04000200
02000200
01000200
00C00200
00200200
00100200
00080200
00060200
00010200
00008200
00006200
00001100
00000900
00000500
00000300
00000080
ENDCHAR
STARTCHAR 0044
ENCODING 68
SWIDTH 333 0
DWIDTH 24 0
BBX 24 56 -1 8
BITMAP
FFFFE0
400018
400006
400002
400002
400002
400002
400002
407E02
404202
404202
404202
404202
404202
404202
404202
404202
404202
404202
404202
404202
404202
404202
404202
404202
404202
404202
404202
404202
404202
404202
404202
404202
402202
401A02
400602
400202
400002
400002
200002
180002
040002
020002
010002
00C002
002002
001002
000802
000602
000102
000082
000042
000032
00000A
000006
000003
ENDCHAR
STARTCHAR 0045
ENCODING 69
SWIDTH 333 0
DWIDTH 24 0
BBX 25 57 -1 8
BITMAP
FFFFE000
40001800
40000600
40000200
40000200
40000200
40000200
40000200
407E0200
40420200
4043FE00
40400000
40400000
40400000
40400000
40400000
407FC000
40004000
40004000
40004000
40004000
40004000
40004000
40004000
40004000
407FC000
40400000
40400000
40400000
4041FE00
40410200
40410200
40410200
40210200
40190200
40050200
40030200
40010200
40000200
20000200
18000200
04000200
02000200
01000200
00C00200
00200200
00100200
00080200
00060200
00010200
00008200
00006200
00001100
00000900
00000500
00000300
00000080
ENDCHAR
STARTCHAR 0046
ENCODING 70
SWIDTH 333 0
DWIDTH 24 0
BBX 25 59 -1 6
BITMAP
FFFFFF80
40000100
40000200
40000200
40000200
40000200
40000200
40000200
407E0200
40420200
4043FE00
40400000
40400000
40400000
40400000
40400000
40400000
40400000
40400000
407FC000
40004000
40004000
40004000
40004000
40004000
40004000
40004000
40004000
407FC000
40400000
40400000
40400000
40400000
40400000
40400000
40400000
40400000
40400000
40400000
40400000
40400000
40400000
40400000
40400000
40400000
40400000
40400000
40400000
40400000
40400000
40400000
80400000
60400000
10400000
0C400000
02400000
01400000
00C00000
00200000
ENDCHAR
STARTCHAR 0047
ENCODING 71
SWIDTH 333 0
DWIDTH 24 0
BBX 24 56 -1 8
BITMAP
FFFFE0
400018
400006
400002
400002
400002
400002
400002
407E02
404202
4043FE
404000
404000
404000
404000
404000
404000
404000
404000
404000
404FFE
405002
405002
405002
405002
405002
405002
405002
404E02
404202
404202
404202
404202
402202
401A02
400602
400202
400002
400002
200002
180002
040002
020002
010002
00C002
002002
001002
000802
000602
000102
000082
000042
000032
00000A
000006
000003
ENDCHAR
STARTCHAR 0048
ENCODING 72
SWIDTH 333 0
DWIDTH 24 0
BBX 25 59 -1 7
BITMAP
FFC3FF80
40420100
40420200
40420200
40420200
40420200
40420200
40420200
40420200
40420200
40420200
40420200
40420200
40420200
40420200
40420200
40420200
40420200
40420200
40420200
407E0200
40000200
40000200
40000200
40000200
40000200
40000200
40000200
407E0200
40420200
40420200
40420200
40420200
40420200
40420200
40420200
40420200
40420200
40420200
40420200
40420200
30420200
08420200
04420200
02420200
01420200
00C20200
00020200
00020200
00020200
00020200
00010200
00008200
00006200
00001100
00000900
00000700
00000100
00000080
ENDCHAR
STARTCHAR 0049
ENCODING 73
SWIDTH 138 0
DWIDTH 10 0
BBX 11 69 -1 6
BITMAP
FFE0
4020
4040
4040
4040
4040
4040
4040
7FC0
0000
7FC0
4040
4040
4040
4040
4040
4040
4040
4040
4040
4040
4040
4040
4040
4040
4040
4040
4040
4040
4040
4040
4040
4040
4040
4040
4040
4040
4040
4040
4040
4040
4040
4040
4040
4040
4040
4040
4040
4040
4040
4040
4040
4040
4040
4040
4040
4040
4040
4040
4040
4040
C040
2040
1040
0C40
0240
0140
00C0
0020
ENDCHAR
STARTCHAR 004A
ENCODING 74
SWIDTH 333 0
DWIDTH 24 0
BBX 25 66 -1 9
BITMAP
0007FF80
00040100
00020200
00020200
00020200
00020200
00020200
00020200
0003FE00
00000000
0003FE00
00020200
00020200
00020200
00020200
00020200
00020200
00020200
00020200
00020200
00020200
00020200
00020200
00020200
00020200
00020200
00020200
00020200
00020200
00020200
00020200
00020200
00020200
00020200
00020200
00020200
00020200
00020200
00020200
00020200
00020200
00020200
00020200
00020200
00020200
FFC20200
80420200
40420200
40420200
40420200
40420200
40440200
40580200
40600200
40400200
40000200
40000200
20000400
10000800
08003000
04004000
02008000
01010000
00820000
00440000
00380000
ENDCHAR
STARTCHAR 004B
ENCODING 75
SWIDTH 333 0
DWIDTH 24 0
BBX 25 58 -1 7
BITMAP
FFC3FF80
40420100
40420200
40420200
40420200
40420200
40420200
40420200
40420200
40420200
40420200
40420200
40420200
40420200
40420200
40460200
40480200
40700200
40400200
40000C00
40001000
40006000
40018000
4000C000
40003000
40000C00
40000200
40600200
40580200
40460200
40420200
40420200
40420200
40420200
40420200
40420200
40420200
40420200
40420200
40420200
40420200
20420200
18420200
04420200
02420200
01C20200
00420200
00020200
00020200
00020200
00020200
00018200
00004200
00002200
00001900
00000500
00000300
00000100
ENDCHAR
STARTCHAR 004C
ENCODING 76
SWIDTH 333 0
DWIDTH 24 0
BBX 24 56 -1 8
BITMAP
FFE000
402000
404000
404000
404000
404000
404000
404000
404000
404000
404000
404000
404000
404000
404000
404000
404000
404000
404000
404000
404000
404000
404000
404000
404000
404000
404000
404000
404000
4043FE
404202
404202
404202
402202
401A02
400602
400202
400002
400002
200002
180002
040002
020002
010002
00C002
002002
001002
000802
000602
000102
000082
000042
000032
00000A
000006
000003
ENDCHAR
STARTCHAR 004D
ENCODING 77
SWIDTH 388 0
DWIDTH 28 0
BBX 28 59 -1 6
BITMAP
FFC03FF0
80204010
40204020
40204020
40108020
40108020
40090020
40090020
40090020
40060020
40060020
40020020
40000020
40000020
40000020
40000020
40000020
40000020
40000020
40000020
40000020
40000020
40000020
40800020
40800020
40800020
40800020
40C00020
40C00020
40C00020
40A01020
40A01020
40A03020
40A03020
40905020
40905020
40905020
40889020
C0889020
20889020
10891020
0C851020
02851020
01821020
00821020
00021020
00001020
00001020
00001020
00001020
00002020
00002020
00001020
00000C20
00000220
00000110
000000D0
00000030
00000010
ENDCHAR
STARTCHAR 004E
ENCODING 78
SWIDTH 333 0
DWIDTH 24 0
BBX 25 56 -1 9
BITMAP
FFC3FF80
40420100
40420200
40220200
40220200
40220200
40120200
40120200
40120200
400A0200
400A0200
400A0200
40060200
40060200
40020200
40020200
40020200
40000200
40000200
40000200
40000200
40000200
40000200
40000200
40000200
40000200
40000200
40400200
40400200
40400200
40600200
40600200
40600200
40500200
40500200
40500200
40480200
40480200
40480200
20480200
18440200
04440200
02440200
01420200
00C20200
00020200
00020200
00020200
00020200
00010200
00008200
00006200
00001200
00000900
00000500
00000100
ENDCHAR
STARTCHAR 004F
ENCODING 79
SWIDTH 333 0
DWIDTH 24 0
BBX 22 56 0 9
BITMAP
1FFFF0
200010
400008
800004
800004
800004
800004
800004
80FC04
808404
808404
808404
808404
808404
808404
808404
808404
808404
808404
808404
808404
808404
808404
808404
808404
808404
808404
808404
808404
808404
808404
808404
808404
808404
808404
808404
808404
808404
808404
808404
808404
804404
802404
801C04
800404
800004
400004
200008
100010
080020
060040
010080
008100
004200
002400
001800
ENDCHAR
STARTCHAR 0050
ENCODING 80
SWIDTH 333 0
DWIDTH 24 0
BBX 25 57 -2 8
BITMAP
7FFFF800
20000400
20000300
20000080
20000080
20000080
20000080
20000080
201F8080
20208080
20208080
20208080
20208080
20208080
20208080
20208080
20208080
20208080
20208080
20208080
20208080
20208080
20208080
20210080
20260080
20180080
20000080
20000080
20000300
20000C00
20001000
20006000
20018000
20060000
20180000
20200000
20200000
20200000
20200000
20200000
20200000
20200000
20200000
20200000
20200000
20200000
20200000
E0200000
20200000
10200000
08200000
06200000
01200000
00A00000
00600000
00300000
00100000
ENDCHAR
STARTCHAR 0051
ENCODING 81
SWIDTH 333 0
DWIDTH 24 0
BBX 22 56 0 8
BITMAP
3FFFE0
200010
400008
800004
800004
800004
800004
800004
80F804
808804
808804
808804
808804
808804
808804
808804
808804
808804
808804
808804
808804
808804
808804
808804
808804
808804
808804
808804
808804
808804
808804
808804
808804
808804
808804
808804
808804
808804
808804
804804
802804
801804
800804
800004
800004
800004
800008
400010
200010
100010
080010
040390
020490
010850
009030
006010
ENDCHAR
STARTCHAR 0052
ENCODING 82
SWIDTH 319 0
DWIDTH 23 0
BBX 24 58 -1 7
BITMAP
FFFFE0
400018
400006
400002
400002
400002
400002
400002
407F02
404102
404102
404102
404102
404102
404102
404602
404802
407002
404002
40000C
400030
400040
400180
4000C0
400030
40000C
400002
406002
405802
404602
404202
404202
404202
404202
404202
404202
404202
404202
404202
404202
404202
404202
304202
084202
064202
014202
00C202
004202
000202
000202
000202
000102
000082
000062
000012
00000A
000007
000001
ENDCHAR
STARTCHAR 0053
ENCODING 83
SWIDTH 333 0
DWIDTH 24 0
BBX 24 56 -1 8
BITMAP
FFFFE0
400018
400006
400002
400002
400002
400002
400002
407E02
404202
4043FE
404000
404000
404000
404000
404000
404000
404000
404000
406000
401000
400C00
400300
3000C0
0C0030
03000C
008002
006002
001802
000602
000202
7FE202
402202
401202
400A02
400602
400002
400002
400002
200002
180002
040002
020002
010002
00C002
002002
001002
000802
000602
000102
000082
000042
000032
00000A
000006
000003
ENDCHAR
STARTCHAR 0054
ENCODING 84
SWIDTH 333 0
DWIDTH 24 0
BBX 25 60 -1 6
BITMAP
FFFFFF80
40000100
40000200
40000200
40000200
40000200
40000200
40000200
7F00FE00
01010000
01010000
01010000
01010000
01010000
01010000
01010000
01010000
01010000
01010000
01010000
01010000
01010000
01010000
01010000
01010000
01010000
01010000
01010000
01010000
01010000
01010000
01010000
01010000
01010000
01010000
01010000
01010000
01010000
01010000
01010000
01010000
01010000
01010000
01010000
01010000
01010000
01010000
01010000
01010000
01010000
01010000
01010000
00810000
00410000
00310000
00088000
00068000
00018000
00008000
00004000
ENDCHAR
STARTCHAR 0055
ENCODING 85
SWIDTH 333 0
DWIDTH 24 0
BBX 22 56 0 9
BITMAP
FF87FC
808404
808404
808404
808404
808404
808404
808404
808404
808404
808404
808404
808404
808404
808404
808404
808404
808404
808404
808404
808404
808404
808404
808404
808404
808404
808404
808404
808404
808404
808404
808404
808404
808404
808404
808404
808404
808404
808404
808404
808404
809804
80A004
80C004
808004
800004
800004
400018
200020
100040
080080
040100
020600
010800
009000
006000
ENDCHAR
STARTCHAR 0056
ENCODING 86
SWIDTH 333 0
DWIDTH 24 0
BBX 25 56 -1 8
BITMAP
FFC1FF80
40410100
40410200
40410200
40410200
40410200
40410200
40410200
40410200
40410200
40410200
40410200
40410200
40410200
40410200
40410200
40410200
40410200
40410200
40410200
40410200
40410200
40410200
40410200
40410200
40410200
40410200
40410200
40410200
40410200
40410200
40410200
40410200
40210200
40190200
40050200
40030200
40000200
40000200
20000200
18000200
04000200
02000200
01000200
00C00200
00200200
00100200
00080200
00060200
00010200
00008200
00004200
00003200
00000A00
00000600
00000300
ENDCHAR
STARTCHAR 0057
ENCODING 87
SWIDTH 416 0
DWIDTH 30 0
BBX 28 61 -1 6
BITMAP
00020000
00020000
FFC61FF0
40451010
40451020
40451020
40489020
40489020
40489020
40485020
40505020
40503020
40503020
40603020
40601020
40601020
40601020
40400020
40400020
40400020
40400020
40800020
40000020
40000020
40000020
40000020
40000020
40000020
40000020
40000020
40000020
40000020
40000020
40000020
40020020
40020020
40050020
40050020
40050020
40088020
40088020
30084020
08104020
04104020
03102020
00A02020
00601020
00201020
00001020
00001020
00001020
00001020
00001020
00002020
00001820
00000420
00000220
00000190
00000050
00000030
00000010
ENDCHAR
STARTCHAR 0058
ENCODING 88
SWIDTH 333 0
DWIDTH 24 0
BBX 25 59 -1 6
BITMAP
FFC1FF80
40410100
40410200
40410200
40410200
40410200
40410200
40410200
40410200
40410200
40410200
40410200
40410200
40410200
40410200
40220200
40140200
40080200
40000200
30000400
08000800
04001000
03006000
06003000
08000800
10000400
60000200
40080200
40140200
40230200
40410200
40410200
40410200
40410200
40410200
40410200
40410200
40410200
40410200
40410200
40410200
40410200
60410200
10410200
08410200
06410200
01410200
00C10200
00010200
00010200
00020200
00020200
00010200
0000C200
00002200
00001900
00000500
00000300
00000100
ENDCHAR
STARTCHAR 0059
ENCODING 89
SWIDTH 333 0
DWIDTH 24 0
BBX 25 58 -1 7
BITMAP
FFC0FF80
40408100
40408100
40408100
40408100
40408100
40408100
40408100
40408100
40408100
40408100
40408100
40408100
40408100
40408100
40408100
40408100
40408100
40408100
40408100
40408100
40408100
40408100
40408100
403F0100
40000100
40000100
40000100
40000100
40000100
40000100
40000100
7F807F00
00808000
00808000
00808000
00808000
00808000
00808000
00808000
00808000
00808000
00808000
00808000
00808000
00808000
00808000
00808000
00808000
00808000
00808000
00408000
00308000
00088000
00064000
00014000
0000C000
00006000
ENDCHAR
STARTCHAR 005A
ENCODING 90
SWIDTH 333 0
DWIDTH 24 0
BBX 24 56 -1 8
BITMAP
FFFFE0
400018
400006
400002
400002
400002
400002
400002
407F02
408102
408102
408102
7F8102
000102
000202
000202
000404
000808
000808
001010
002020
002020
004040
008080
008080
010100
020200
020200
0405FE
080902
080902
101102
202102
202102
401102
400902
400502
400302
400102
200002
180002
040002
020002
010002
00C002
002002
001002
000802
000602
000102
000082
000042
000032
00000A
000006
000003
ENDCHAR
STARTCHAR 005B
ENCODING 91
SWIDTH 208 0
DWIDTH 15 0
BBX 13 57 0 9
BITMAP
FFF8
8008
8008
8008
8008
8008
8008
8008
80F0
8080
8080
8080
8080
8080
8080
8080
8080
8080
8080
8080
8080
8080
8080
8080
8080
8080
8080
8080
8080
8080
8080
8080
8080
8080
8080
8080
8080
8080
8080
8080
8080
8060
8010
8008
8008
8008
8008
4008
2008
1808
0408
0208
0108
00C8
0028
0018
0008
ENDCHAR
STARTCHAR 005C
ENCODING 92
SWIDTH 291 0
DWIDTH 21 0
BBX 21 58 -1 6
BITMAP
FFF000
402000
202000
202000
202000
202000
202000
101000
101000
101000
101000
101000
080800
080800
080800
080800
080800
040400
040400
040400
040400
040400
020200
020200
020200
020200
020200
010100
010100
010100
010100
010100
008080
008080
008080
008080
008080
004040
004040
004040
004040
004040
002020
002020
002020
002020
002020
001010
001010
001010
001008
001008
000810
000820
000840
000880
000B00
000400
ENDCHAR
STARTCHAR 005D
ENCODING 93
SWIDTH 194 0
DWIDTH 14 0
BBX 12 56 0 9
BITMAP
FFF0
8010
8010
8010
8010
8010
8010
8010
7010
1010
1010
1010
1010
1010
1010
1010
1010
1010
1010
1010
1010
1010
1010
1010
1010
1010
1010
1010
1010
1010
1010
1010
1010
1010
1010
1010
1010
1010
1010
1010
1010
1010
9010
D010
B010
8010
8030
8040
8080
8100
8200
8C00
9000
A000
C000
8000
ENDCHAR
STARTCHAR 005F
ENCODING 95
SWIDTH 250 0
DWIDTH 18 0
BBX 19 9 -1 15
BITMAP
FFFFE0
400020
400040
400040
400040
400040
400040
400040
7FFFC0
ENDCHAR
STARTCHAR 0060
ENCODING 96
SWIDTH 319 0
DWIDTH 23 0
BBX 15 13 4 35
BITMAP
1000
6C00
4200
8100
4080
6040
3020
0C20
0210
0188
0044
0032
000C
ENDCHAR
STARTCHAR 0061
ENCODING 97
SWIDTH 319 0
DWIDTH 23 0
BBX 23 44 0 21
BITMAP
1FFFF0
200008
400004
800002
800002
800002
800002
800002
80FC02
808402
808402
808402
808402
808402
808402
808402
808402
808402
808402
808402
808402
807802
800002
800002
800002
800002
800002
800002
800002
80FC02
808402
808402
808402
808402
808402
808402
808402
808404
608408
108430
088440
048480
038700
008400
ENDCHAR
STARTCHAR 0062
ENCODING 98
SWIDTH 319 0
DWIDTH 23 0
BBX 23 45 0 20
BITMAP
1FFFF0
200008
400004
800002
800002
800002
800002
800002
80FC02
808402
808402
808402
808402
809802
80E002
808002
800004
800018
800060
8000C0
800020
800018
800006
808002
80E002
809002
808C02
808402
808402
808402
808402
808402
808802
80B002
80C002
808002
800006
800008
600010
100060
080080
040100
030600
008800
007000
ENDCHAR
STARTCHAR 0063
ENCODING 99
SWIDTH 319 0
DWIDTH 23 0
BBX 23 45 0 20
BITMAP
1FFFF0
200008
400004
800002
800002
800002
800002
800002
80FC02
808402
808402
808402
808402
8087FE
808000
808000
808000
808000
808000
808000
808000
808000
808000
808000
808000
808000
808000
8087FE
808402
808402
808402
808402
809802
80A002
80C002
808002
800006
800008
600010
100060
080080
040100
030600
008800
007000
ENDCHAR
STARTCHAR 0064
ENCODING 100
SWIDTH 319 0
DWIDTH 23 0
BBX 23 45 0 21
BITMAP
FFFFF0
800008
800004
800002
800002
800002
800002
800002
80FC02
808402
808402
808402
808402
808402
808402
808402
808402
808402
808402
808402
808402
808402
808402
808402
808402
808402
808802
80B002
80C002
808004
800008
800030
800040
800180
800200
800C00
801000
806000
808000
830000
840000
880000
B00000
C00000
800000
ENDCHAR
STARTCHAR 0065
ENCODING 101
SWIDTH 319 0
DWIDTH 23 0
BBX 23 45 0 20
BITMAP
1FFFF0
200008
400004
800002
800002
800002
800002
800002
80FC02
808402
808402
808402
808402
8087FE
808000
80FC00
800400
800400
800400
800400
800400
800400
800400
800400
80FC00
808000
808000
8087FE
808402
808402
808402
808402
809802
80A002
80C002
808002
800006
800008
600010
100060
080080
040100
030600
008800
007000
ENDCHAR
STARTCHAR 0066
ENCODING 102
SWIDTH 319 0
DWIDTH 23 0
BBX 23 44 0 21
BITMAP
1FFFF0
200008
400004
800002
800002
800002
800002
800002
80FC02
808402
808402
808402
808402
8087FE
808000
80FC00
800400
800400
800400
800400
800400
800400
800400
800400
80FC00
808000
808000
808000
808000
808000
808000
808000
808000
808000
808000
808000
808000
808000
830000
840000
880000
900000
E00000
800000
ENDCHAR
STARTCHAR 0067
ENCODING 103
SWIDTH 319 0
DWIDTH 23 0
BBX 23 45 0 20
BITMAP
1FFFF0
200008
400004
800002
800002
800002
800002
800002
80FC02
808402
808402
808402
808402
8087FE
808000
808000
808000
808000
808000
808000
80BFFE
80A002
80A002
80A002
80A002
80A002
80A002
80A002
80BC02
808402
808402
808C02
809002
80A002
80C002
800002
800006
800008
600010
100060
080080
040100
030600
008800
007000
ENDCHAR
STARTCHAR 0068
ENCODING 104
SWIDTH 319 0
DWIDTH 23 0
BBX 23 44 0 21
BITMAP
FF87FE
808402
808402
808402
808402
808402
808402
808402
808402
808402
808402
808402
808402
808402
808402
808402
807802
800002
800002
800002
800002
800002
800002
800002
800002
800002
80FC02
808402
808402
808402
808402
808402
808402
808402
808402
808402
808402
808404
608408
108430
088440
048480
038700
008400
ENDCHAR
STARTCHAR 0069
ENCODING 105
SWIDTH 138 0
DWIDTH 10 0
BBX 10 53 0 21
BITMAP
FFC0
8040
8040
8040
8040
8040
8040
8040
FFC0
0000
FFC0
8040
8040
8040
8040
8040
8040
8040
8040
8040
8040
8040
8040
8040
8040
8040
8040
8040
8040
8040
8040
8040
8040
8040
8040
8040
8040
8040
8040
8040
8040
8040
8040
8040
8040
8040
8040
6040
1040
0840
0640
0140
00C0
ENDCHAR
STARTCHAR 006A
ENCODING 106
SWIDTH 319 0
DWIDTH 23 0
BBX 23 56 0 19
BITMAP
0007FE
000402
000402
000402
000402
000402
000402
000402
0007FE
000000
0007FE
000402
000402
000402
000402
000402
000402
000402
000402
000402
000402
000402
000402
000402
000402
000402
000402
000402
000402
000402
000402
000402
000402
000402
000402
000402
000402
000402
FF8402
808402
808402
808402
809802
80A002
80C002
808002
800006
800008
600010
100060
080080
040100
030600
008800
005000
002000
ENDCHAR
STARTCHAR 006B
ENCODING 107
SWIDTH 319 0
DWIDTH 23 0
BBX 23 43 0 22
BITMAP
FF87FE
808402
808402
808402
808402
808402
808402
808402
808402
808402
808402
808402
808402
809802
80E002
808002
800004
800018
800060
8000C0
800020
800018
800006
808002
80E002
809002
808C02
808402
808402
808402
808402
808402
808402
808402
808402
808402
808406
C08408
208410
188460
048480
038700
008400
ENDCHAR
STARTCHAR 006C
ENCODING 108
SWIDTH 319 0
DWIDTH 23 0
BBX 23 46 0 20
BITMAP
FF8000
808000
808000
808000
808000
808000
808000
808000
808000
808000
808000
808000
808000
808000
808000
808000
808000
808000
808000
808000
808000
808000
808000
808000
808000
808000
808000
8087FE
808402
808402
808402
808402
809802
80A002
80C002
808002
800006
800008
600010
100060
080080
040100
030600
008800
005000
002000
ENDCHAR
STARTCHAR 006D
ENCODING 109
SWIDTH 444 0
DWIDTH 32 0
BBX 31 43 0 22
BITMAP
FFC007FE
80400802
80200802
80201002
80201002
80102002
80102002
80084002
80084002
80048002
80048002
80050002
80030002
80000002
80000002
80000002
80000002
80000002
80000002
80000002
80000002
80000402
80400402
80400C02
80600C02
80601402
80601402
80501402
80502402
80482402
80484402
80444402
80444402
80428402
80428402
80410402
80410406
60400408
10400410
08400460
06400480
01400700
00C00400
ENDCHAR
STARTCHAR 006E
ENCODING 110
SWIDTH 319 0
DWIDTH 23 0
BBX 23 44 0 21
BITMAP
FFC3FE
804402
804402
802402
802402
802402
801402
801402
801402
800C02
800C02
800C02
800402
800402
800402
800002
800002
800002
800002
800002
800002
800002
800002
800002
800002
800002
808002
804002
804002
804002
80A002
80A002
80A002
80A002
809002
809002
809002
808804
608808
108810
088420
0684C0
018500
008200
ENDCHAR
STARTCHAR 006F
ENCODING 111
SWIDTH 319 0
DWIDTH 23 0
BBX 23 45 0 20
BITMAP
1FFFF0
200008
400004
800002
800002
800002
800002
800002
80FC02
808402
808402
808402
808402
808402
808402
808402
808402
808402
808402
808402
808402
808402
808402
808402
808402
808402
808402
808402
808402
808402
808402
808402
809802
80A002
80C002
808002
800006
800008
600010
100060
080080
040100
030600
008800
007000
ENDCHAR
STARTCHAR 0070
ENCODING 112
SWIDTH 319 0
DWIDTH 23 0
BBX 23 44 0 21
BITMAP
3FFFF0
200008
400004
800002
800002
800002
800002
800002
807C02
808402
808402
808402
808402
808402
808402
808802
809002
806002
800002
800002
80000C
800010
800020
8000C0
800100
800200
800C00
801000
806000
808000
808000
808000
808000
808000
808000
808000
808000
808000
608000
108000
088000
068000
018000
008000
ENDCHAR
STARTCHAR 0071
ENCODING 113
SWIDTH 319 0
DWIDTH 23 0
BBX 23 45 0 20
BITMAP
1FFFF0
200008
400004
800002
800002
800002
800002
800002
80FC02
808402
808402
808402
808402
808402
808402
808402
808402
808402
808402
808402
808402
808402
808402
808402
808402
808402
808402
808402
808402
808402
808802
80B002
804002
800002
800002
800002
800006
800008
600008
10000C
080010
040020
030040
008C80
007300
ENDCHAR
STARTCHAR 0072
ENCODING 114
SWIDTH 319 0
DWIDTH 23 0
BBX 23 43 0 22
BITMAP
3FFFF0
400008
800004
800002
800002
800002
800002
800002
80FC02
808402
808402
808402
808402
809802
80E002
808002
800004
800018
800060
8000C0
800020
800018
800006
808002
80E002
809002
808C02
808402
808402
808402
808402
808402
808402
808402
808402
808402
808402
C08404
208418
108420
0C84C0
028500
018600
ENDCHAR
STARTCHAR 0073
ENCODING 115
SWIDTH 319 0
DWIDTH 23 0
BBX 23 46 0 20
BITMAP
3FFFF0
400008
800004
800002
800002
800002
800002
800002
80FC02
808402
808402
8083FC
808000
808000
808000
80C000
803000
800800
800600
C00180
200060
180018
060006
018002
004002
003002
000C02
000402
000402
FF8402
808402
808C02
809002
80A002
80C002
808002
800002
800004
600018
100020
0800C0
040100
030600
008800
005000
002000
ENDCHAR
STARTCHAR 0074
ENCODING 116
SWIDTH 319 0
DWIDTH 23 0
BBX 22 44 0 21
BITMAP
FFFFFC
800004
800004
800004
800004
800004
800004
800004
800004
800004
FE01FC
020100
020100
020100
020100
020100
020100
020100
020100
020100
020100
020100
020100
020100
020100
020100
020100
020100
020100
020100
020100
020100
020100
020100
020100
020100
020100
010100
008100
004100
003100
000900
000500
000300
ENDCHAR
STARTCHAR 0075
ENCODING 117
SWIDTH 319 0
DWIDTH 23 0
BBX 23 46 0 20
BITMAP
FF87FE
808402
808402
808402
808402
808402
808402
808402
808402
808402
808402
808402
808402
808402
808402
808402
808402
808402
808402
808402
808402
808402
808402
808402
808402
808402
808402
808402
808402
808402
808402
808402
809802
80A002
80C002
808002
800006
800008
600010
100060
080080
040100
030600
008800
005000
002000
ENDCHAR
STARTCHAR 0076
ENCODING 118
SWIDTH 319 0
DWIDTH 23 0
BBX 23 46 0 20
BITMAP
FF87FE
808402
808402
808402
808402
808402
808402
808402
808402
808402
808402
808402
808402
808402
808402
808402
808402
808402
808402
808402
808402
808402
808402
808402
808402
808402
808402
808802
808802
809002
80A002
80C002
808004
800008
400010
200010
100020
080040
040080
040100
020200
010400
008800
005000
006000
002000
ENDCHAR
STARTCHAR 0077
ENCODING 119
SWIDTH 430 0
DWIDTH 31 0
BBX 30 44 0 21
BITMAP
FFBFF7FC
80A01404
80A01404
80A01404
80A01404
80A01404
80A01404
80A01404
80A01404
80A01404
80A01404
80A01404
80A01404
80A01404
80A01404
80A01404
80A01404
80A01404
80A01404
80A01404
80A01404
80A01404
80A01404
80A01404
80A01404
80A01404
80A01404
80A01404
80A01404
80A01404
80A01404
80A01804
80C01004
80800004
80000004
80000004
80000004
C0000004
30000018
08000060
06030180
01830600
00449800
00386000
ENDCHAR
STARTCHAR 0078
ENCODING 120
SWIDTH 333 0
DWIDTH 24 0
BBX 23 43 0 22
BITMAP
FFC3FE
804402
804402
804402
804402
804402
804402
804402
804402
804402
804402
804402
804402
803802
800002
800002
C00006
200008
180030
040040
180030
60000C
800002
800002
800002
803802
804402
804402
804402
804402
804402
804402
804402
804402
804402
804402
804402
60440C
104410
084420
0644C0
014500
00C200
ENDCHAR
STARTCHAR 0079
ENCODING 121
SWIDTH 319 0
DWIDTH 23 0
BBX 23 45 0 20
BITMAP
FF87FE
808402
808402
808402
808402
808402
808402
808402
808402
808402
808402
808402
808402
808402
807802
800002
800002
800002
800002
800002
800002
800002
800002
800002
7FFC02
000402
000402
FF8402
808402
808402
808402
808402
809802
80A002
80C002
808002
800006
800008
600010
100060
080080
040100
030600
008800
007000
ENDCHAR
STARTCHAR 007A
ENCODING 122
SWIDTH 319 0
DWIDTH 23 0
BBX 23 46 0 20
BITMAP
3FFFF0
400008
800004
800002
800002
800002
800002
800002
80FC02
808402
FF8402
000804
000804
001008
002010
002020
004020
008040
008080
010100
020100
020200
040400
080400
100800
101000
202000
402000
404000
808000
8087FE
808402
808802
80B002
80C002
808002
800002
800004
600018
100020
0800C0
040100
030600
008800
005000
002000
ENDCHAR
STARTCHAR 007C
ENCODING 124
SWIDTH 138 0
DWIDTH 10 0
BBX 11 76 -1 -2
BITMAP
FFE0
4020
4040
4040
4040
4040
4040
4040
4040
4040
4040
4040
4040
4040
4040
4040
4040
4040
4040
4040
4040
4040
4040
4040
4040
4040
4040
4040
4040
4040
4040
4040
4040
4040
4040
4040
4040
4040
4040
4040
4040
4040
4040
4040
4040
4040
4040
4040
4040
4040
4040
4040
4040
4040
4040
4040
4040
4040
4040
4040
4040
4040
4040
4040
4040
4040
4040
4040
4020
4020
40C0
4100
4200
4C00
5000
6000
ENDCHAR
STARTCHAR 00A0
ENCODING 160
SWIDTH 250 0
DWIDTH 18 0
BBX 0 0 0 0
BITMAP
ENDCHAR
STARTCHAR 00A5
ENCODING 165
SWIDTH 333 0
DWIDTH 24 0
BBX 25 71 -1 6
BITMAP
00000800
00001800
00002800
0000D000
00011000
00061000
00081000
00101000
00101000
00081000
00081000
00081000
FFF80F80
40000100
40000200
40000200
40000200
40000200
40000200
40000200
407E0200
40420200
4043FE00
40400000
40400000
40400000
40400000
40400000
40400000
40400000
40400000
40400000
40400000
40400000
40400000
40400000
40400000
40400000
40400000
40400000
40400000
40400000
40400000
40400000
40400000
40400000
40400000
40400000
40400000
40400000
40400000
40400000
40400000
40400000
40400000
40400000
40400000
40400000
40400000
40400000
40400000
40400000
40400000
80400000
60400000
10400000
0C400000
02400000
01400000
00C00000
00200000
ENDCHAR
STARTCHAR 00AD
ENCODING 173
SWIDTH 250 0
DWIDTH 18 0
BBX 20 10 -1 39
BITMAP
FFFFF0
800020
400040
400040
400040
400040
400040
400040
400040
7FFFC0
ENDCHAR
STARTCHAR 0401
ENCODING 1025
SWIDTH 333 0
DWIDTH 24 0
BBX 25 67 -1 7
BITMAP
7FF3FF00
40120100
20120200
20120200
20120200
20120200
20120200
20120200
1FE1FC00
00000000
FFFFE000
40001800
40000600
40000200
40000200
40000200
40000200
40000200
407E0200
40420200
4043FE00
40400000
40400000
40400000
40400000
40400000
407FC000
40004000
40004000
40004000
40004000
40004000
40004000
40004000
40004000
407FC000
40400000
40400000
40400000
4041FE00
40410200
40410200
40410200
40210200
40190200
40050200
40030200
40010200
40000200
20000200
18000200
04000200
02000200
01000200
00C00200
00200200
00100200
00080200
00060200
00010200
00008200
00006200
00001100
00000900
00000500
00000300
00000080
ENDCHAR
STARTCHAR 0404
ENCODING 1028
SWIDTH 333 0
DWIDTH 24 0
BBX 24 57 0 8
BITMAP
0FFFFF
300002
400004
800004
800004
800004
800004
800004
80FC04
808404
8083FC
808000
808000
808000
808000
808000
808000
808000
80FF00
800100
800100
800100
800100
800100
800100
80FF00
808000
808000
808000
808000
808000
808000
8087FC
808404
804404
802404
801C04
800404
800004
400004
200004
180004
040004
020004
010004
00C004
002004
001004
000C04
000204
000104
000084
000064
000012
00000A
000006
000002
ENDCHAR
STARTCHAR 0407
ENCODING 1031
SWIDTH 138 0
DWIDTH 10 0
BBX 21 69 -6 6
BITMAP
FFFFF8
406010
406020
406020
406020
406020
406020
406020
7FDFE0
000000
03FE00
020200
020200
020200
020200
020200
020200
020200
020200
020200
020200
020200
020200
020200
020200
020200
020200
020200
020200
020200
020200
020200
020200
020200
020200
020200
020200
020200
020200
020200
020200
020200
020200
020200
020200
020200
020200
020200
020200
020200
020200
020200
020200
020200
020200
020200
020200
020200
020200
020200
020200
060200
010200
008200
006200
001200
000A00
000600
000100
ENDCHAR
STARTCHAR 040D
ENCODING 1037
SWIDTH 250 0
DWIDTH 18 0
BBX 0 0 0 0
BITMAP
ENDCHAR
STARTCHAR 040E
ENCODING 1038
SWIDTH 333 0
DWIDTH 24 0
BBX 25 67 -1 7
BITMAP
7FFFFF00
40000100
20000200
20000200
20000200
20000200
20000200
20000200
1FFFFC00
00000000
FFC3FF80
40420100
40420200
40420200
40420200
40420200
40420200
40420200
40420200
40420200
40420200
40420200
40420200
40420200
40420200
40420200
40420200
40420200
40420200
40420200
40420200
40420200
40320200
400E0200
40000200
40000200
60000200
18000200
06000200
01800200
00600200
001C0200
7FF30200
40220200
401A0200
40060200
40020200
40000200
40000200
20000200
18000200
04000200
02000200
01000200
00C00200
00200200
00100200
00080200
00060200
00010200
00008200
00006200
00001100
00000900
00000500
00000300
00000080
ENDCHAR
STARTCHAR 040F
ENCODING 1039
SWIDTH 333 0
DWIDTH 24 0
BBX 25 61 -1 4
BITMAP
FFC1FF80
40420100
40420200
40420200
40420200
40420200
40420200
40420200
40420200
40420200
40420200
40420200
40420200
40420200
40420200
40420200
40420200
40420200
40420200
40420200
40420200
40420200
40420200
40420200
40420200
40420200
40420200
40420200
40420200
40420200
40420200
40420200
40420200
40220200
401A0200
40060200
40020200
40000200
40000200
20000200
10000200
08000200
06000200
01000200
01000200
01000200
01000200
01000200
01000200
01000200
01008200
01014200
01013200
01010A00
01010600
00810300
00410000
00310000
00090000
00050000
00030000
ENDCHAR
STARTCHAR 0410
ENCODING 1040
SWIDTH 333 0
DWIDTH 24 0
BBX 24 58 0 7
BITMAP
0FFFFF
100002
600004
800004
800004
800004
800004
800004
80FC04
808404
808404
808404
808404
808404
808404
808404
808404
808404
808404
808404
80FC04
800004
800004
800004
800004
800004
800004
800004
80FC04
808404
808404
808404
808404
808404
808404
808404
808404
808404
808404
808404
808404
608404
108404
088404
048404
038404
008404
000404
000404
000404
000404
000204
000184
000044
000024
000014
00000E
000002
ENDCHAR
STARTCHAR 0411
ENCODING 1041
SWIDTH 333 0
DWIDTH 24 0
BBX 25 57 -1 8
BITMAP
FFFFFF80
40000100
40000200
40000200
40000200
40000200
40000200
40000200
407FFE00
40400000
40400000
40400000
40400000
40200000
40180000
40060000
40018000
40006000
40001800
40000600
40000200
40000200
40600200
40580200
40460200
40420200
40420200
40420200
40420200
40420200
40420200
40420200
40420200
40420200
40420200
40220200
40120200
400A0200
40060200
20000200
18000200
04000200
02000200
01000200
00C00200
00200200
00100200
000C0200
00020200
00010200
00008200
00006200
00001100
00000900
00000500
00000300
00000080
ENDCHAR
STARTCHAR 0412
ENCODING 1042
SWIDTH 333 0
DWIDTH 24 0
BBX 25 57 -1 8
BITMAP
FFFFE000
40001800
40000600
40000200
40000200
40000200
40000200
40000200
407F0200
40410200
40410200
40410200
40410200
40410200
40410200
40460200
40480200
40700200
40400200
40000C00
40001000
40006000
40018000
4000C000
40003000
40000C00
40000200
40600200
40580200
40440200
40430200
40410200
40410200
40210200
40110200
40090200
40070200
40010200
40000200
20000200
18000200
04000200
02000200
01000200
00C00200
00200200
00100200
00080200
00060200
00010200
00008200
00006200
00001100
00000900
00000500
00000300
00000080
ENDCHAR
STARTCHAR 0413
ENCODING 1043
SWIDTH 333 0
DWIDTH 24 0
BBX 25 59 -1 6
BITMAP
FFFFFF80
40000100
40000200
40000200
40000200
40000200
40000200
40000200
407E0200
40420200
4043FE00
40400000
40400000
40400000
40400000
40400000
40400000
40400000
40400000
40400000
40400000
40400000
40400000
40400000
40400000
40400000
40400000
40400000
40400000
40400000
40400000
40400000
40400000
40400000
40400000
40400000
40400000
40400000
40400000
40400000
40400000
40400000
40400000
40400000
40400000
40400000
40400000
40400000
40400000
40400000
40400000
80400000
60400000
10400000
0C400000
02400000
01400000
00C00000
00200000
ENDCHAR
STARTCHAR 0414
ENCODING 1044
SWIDTH 444 0
DWIDTH 32 0
BBX 32 65 0 1
BITMAP
0FFFF800
08000400
08000200
08000100
08000080
08000080
08000040
08000040
08078040
08084040
08084040
08084040
08084040
08084040
08084040
08084040
08084040
08084040
08084040
08084040
08084040
08084040
08084040
08084040
08084040
08084040
08084040
08084040
08084040
08084040
88084040
E8084040
98084040
80084040
80084040
80084040
80084040
80084040
80044040
80034040
8000C040
80000040
80000040
80000040
C0800040
21600040
18900030
048C0008
03830004
00808004
00006004
00001004
00000C04
00000204
00000204
00000204
00000204
00000204
00000104
00000084
00000062
00000012
0000000E
00000002
00000001
ENDCHAR
STARTCHAR 0415
ENCODING 1045
SWIDTH 333 0
DWIDTH 24 0
BBX 25 57 -1 8
BITMAP
FFFFE000
40001800
40000600
40000200
40000200
40000200
40000200
40000200
407E0200
40420200
4043FE00
40400000
40400000
40400000
40400000
40400000
407FC000
40004000
40004000
40004000
40004000
40004000
40004000
40004000
40004000
407FC000
40400000
40400000
40400000
4041FE00
40410200
40410200
40410200
40210200
40190200
40050200
40030200
40010200
40000200
20000200
18000200
04000200
02000200
01000200
00C00200
00200200
00100200
00080200
00060200
00010200
00008200
00006200
00001100
00000900
00000500
00000300
00000080
ENDCHAR
STARTCHAR 0416
ENCODING 1046
SWIDTH 388 0
DWIDTH 28 0
BBX 28 58 -1 6
BITMAP
FFBFDFF0
40A05010
40A05020
40A05020
40A05020
40A05020
40A05020
40A05020
40A05020
40A05020
40A05020
40A05020
40A05020
40A05020
40A05020
40A05020
40602020
40602020
40204020
20200040
20000040
10000080
10000080
10000080
20000040
20000040
40400020
40402020
40402020
40C06020
40C05020
40C05020
40C05020
40C05020
40C05020
40C05020
40C05020
40C05020
40C05020
30C05020
08C05020
04C05020
03C05020
00C05020
00405020
00305020
00085020
00045020
00025020
0001D020
00007020
00003020
00000820
00000420
00000320
000000A0
00000060
00000030
ENDCHAR
STARTCHAR 0417
ENCODING 1047
SWIDTH 333 0
DWIDTH 24 0
BBX 25 57 -1 8
BITMAP
FFFFE000
40001800
40000600
40000200
40000200
40000200
40000200
40000200
407F0200
40410200
7FC10200
00010200
00010200
00010200
00010200
00060200
00180200
00200200
00C00200
00800C00
00801000
00806000
00818000
0080C000
00803000
00800C00
00600200
00100200
000C0200
00030200
00010200
00010200
7FC10200
40410200
40210200
40190200
40050200
40030200
40010200
20000200
18000200
04000200
02000200
01000200
00C00200
00200200
00100200
00080200
00060200
00010200
00008200
00006200
00001100
00000900
00000500
00000300
00000080
ENDCHAR
STARTCHAR 0418
ENCODING 1048
SWIDTH 333 0
DWIDTH 24 0
BBX 25 56 -1 9
BITMAP
FFC3FF80
40420100
40440200
40440200
40440200
40480200
40480200
40480200
40500200
40500200
40500200
40600200
40600200
40600200
40400200
40400200
40400200
40000200
40000200
40000200
40000200
40000200
40000200
40000200
40000200
40000200
40000200
40020200
40020200
40020200
40060200
40060200
40060200
400A0200
400A0200
400A0200
40120200
40120200
40120200
20220200
18220200
04220200
02420200
01420200
00C20200
00020200
00020200
00020200
00020200
00010200
00008200
00006200
00001200
00000900
00000500
00000100
ENDCHAR
STARTCHAR 0419
ENCODING 1049
SWIDTH 333 0
DWIDTH 24 0
BBX 25 66 -1 8
BITMAP
7FFFFF00
40000100
20000200
20000200
20000200
20000200
20000200
20000200
1FFFFC00
00000000
FFC3FF80
40420100
40440200
40440200
40440200
40480200
40480200
40480200
40500200
40500200
40500200
40600200
40600200
40600200
40400200
40400200
40400200
40000200
40000200
40000200
40000200
40000200
40000200
40000200
40000200
40000200
40000200
40020200
40020200
40020200
40060200
40060200
40060200
400A0200
400A0200
400A0200
40120200
40120200
40120200
20220200
18220200
04220200
02420200
01420200
00C20200
00020200
00020200
00020200
00020200
00010200
00008200
00006200
00001200
00000900
00000500
00000100
ENDCHAR
STARTCHAR 041A
ENCODING 1050
SWIDTH 333 0
DWIDTH 24 0
BBX 25 58 -1 7
BITMAP
FFC3FF80
40420100
40420200
40420200
40420200
40420200
40420200
40420200
40420200
40420200
40420200
40420200
40420200
40420200
40420200
40460200
40480200
40700200
40400200
40000C00
40001000
40006000
40018000
4000C000
40003000
40000C00
40000200
40600200
40580200
40460200
40420200
40420200
40420200
40420200
40420200
40420200
40420200
40420200
40420200
40420200
40420200
20420200
18420200
04420200
02420200
01C20200
00420200
00020200
00020200
00020200
00020200
00018200
00004200
00002200
00001900
00000500
00000300
00000100
ENDCHAR
STARTCHAR 041B
ENCODING 1051
SWIDTH 333 0
DWIDTH 24 0
BBX 24 58 0 7
BITMAP
07FFFF
080002
100004
100004
200004
400004
800004
800004
807C04
808404
808404
808404
808404
808404
808404
808404
808404
808404
808404
808404
808404
808404
808404
808404
808404
808404
808404
808404
808404
808404
808404
808404
808404
808404
808404
808404
808404
808404
808404
808404
808404
408404
308404
088404
048404
028404
018404
008404
000404
000804
000804
000604
000104
0000C4
000024
000014
00000E
000002
ENDCHAR
STARTCHAR 041C
ENCODING 1052
SWIDTH 388 0
DWIDTH 28 0
BBX 28 59 -1 6
BITMAP
FFC03FF0
80204010
40204020
40204020
40108020
40108020
40090020
40090020
40090020
40060020
40060020
40020020
40000020
40000020
40000020
40000020
40000020
40000020
40000020
40000020
40000020
40000020
40000020
40800020
40800020
40800020
40800020
40C00020
40C00020
40C00020
40A01020
40A01020
40A03020
40A03020
40905020
40905020
40905020
40889020
C0889020
20889020
10891020
0C851020
02851020
01821020
00821020
00021020
00001020
00001020
00001020
00001020
00002020
00002020
00001020
00000C20
00000220
00000110
000000D0
00000030
00000010
ENDCHAR
STARTCHAR 041D
ENCODING 1053
SWIDTH 333 0
DWIDTH 24 0
BBX 25 59 -1 7
BITMAP
FFC3FF80
40420100
40420200
40420200
40420200
40420200
40420200
40420200
40420200
40420200
40420200
40420200
40420200
40420200
40420200
40420200
40420200
40420200
40420200
40420200
407E0200
40000200
40000200
40000200
40000200
40000200
40000200
40000200
407E0200
40420200
40420200
40420200
40420200
40420200
40420200
40420200
40420200
40420200
40420200
40420200
40420200
30420200
08420200
04420200
02420200
01420200
00C20200
00020200
00020200
00020200
00020200
00010200
00008200
00006200
00001100
00000900
00000700
00000100
00000080
ENDCHAR
STARTCHAR 041E
ENCODING 1054
SWIDTH 333 0
DWIDTH 24 0
BBX 22 56 0 9
BITMAP
1FFFF0
200010
400008
800004
800004
800004
800004
800004
80FC04
808404
808404
808404
808404
808404
808404
808404
808404
808404
808404
808404
808404
808404
808404
808404
808404
808404
808404
808404
808404
808404
808404
808404
808404
808404
808404
808404
808404
808404
808404
808404
808404
804404
802404
801C04
800404
800004
400004
200008
100010
080020
060040
010080
008100
004200
002400
001800
ENDCHAR
STARTCHAR 041F
ENCODING 1055
SWIDTH 333 0
DWIDTH 24 0
BBX 25 59 -1 7
BITMAP
FFFFF800
40000400
40000200
40000200
40000200
40000200
40000200
40000200
407E0200
40420200
40420200
40420200
40420200
40420200
40420200
40420200
40420200
40420200
40420200
40420200
40420200
40420200
40420200
40420200
40420200
40420200
40420200
40420200
40420200
40420200
40420200
40420200
40420200
40420200
40420200
40420200
40420200
40420200
40420200
40420200
40420200
30420200
08420200
04420200
02420200
01420200
00C20200
00020200
00020200
00020200
00020200
00010200
00008200
00006200
00001100
00000900
00000700
00000100
00000080
ENDCHAR
STARTCHAR 0420
ENCODING 1056
SWIDTH 333 0
DWIDTH 24 0
BBX 25 57 -2 8
BITMAP
7FFFF800
20000400
20000300
20000080
20000080
20000080
20000080
20000080
201F8080
20208080
20208080
20208080
20208080
20208080
20208080
20208080
20208080
20208080
20208080
20208080
20208080
20208080
20208080
20210080
20260080
20180080
20000080
20000080
20000300
20000C00
20001000
20006000
20018000
20060000
20180000
20200000
20200000
20200000
20200000
20200000
20200000
20200000
20200000
20200000
20200000
20200000
20200000
E0200000
20200000
10200000
08200000
06200000
01200000
00A00000
00600000
00300000
00100000
ENDCHAR
STARTCHAR 0421
ENCODING 1057
SWIDTH 333 0
DWIDTH 24 0
BBX 25 57 -1 8
BITMAP
FFFFE000
40001800
40000600
40000200
40000200
40000200
40000200
40000200
407E0200
40420200
4043FE00
40400000
40400000
40400000
40400000
40400000
40400000
40400000
40400000
40400000
40400000
40400000
40400000
40400000
40400000
40400000
40400000
40400000
40400000
4041FE00
40410200
40410200
40410200
40210200
40190200
40050200
40030200
40010200
40000200
20000200
18000200
04000200
02000200
01000200
00C00200
00200200
00100200
00080200
00060200
00010200
00008200
00006200
00001100
00000900
00000500
00000300
00000080
ENDCHAR
STARTCHAR 0422
ENCODING 1058
SWIDTH 333 0
DWIDTH 24 0
BBX 25 60 -1 6
BITMAP
FFFFFF80
40000100
40000200
40000200
40000200
40000200
40000200
40000200
7F00FE00
01010000
01010000
01010000
01010000
01010000
01010000
01010000
01010000
01010000
01010000
01010000
01010000
01010000
01010000
01010000
01010000
01010000
01010000
01010000
01010000
01010000
01010000
01010000
01010000
01010000
01010000
01010000
01010000
01010000
01010000
01010000
01010000
01010000
01010000
01010000
01010000
01010000
01010000
01010000
01010000
01010000
01010000
01010000
00810000
00410000
00310000
00088000
00068000
00018000
00008000
00004000
ENDCHAR
STARTCHAR 0423
ENCODING 1059
SWIDTH 333 0
DWIDTH 24 0
BBX 25 57 -1 8
BITMAP
FFC3FF80
40420100
40420200
40420200
40420200
40420200
40420200
40420200
40420200
40420200
40420200
40420200
40420200
40420200
40420200
40420200
40420200
40420200
40420200
40420200
40420200
40420200
40320200
400E0200
40000200
40000200
60000200
18000200
06000200
01800200
00600200
001C0200
7FF30200
40220200
401A0200
40060200
40020200
40000200
40000200
20000200
18000200
04000200
02000200
01000200
00C00200
00200200
00100200
00080200
00060200
00010200
00008200
00006200
00001100
00000900
00000500
00000300
00000080
ENDCHAR
STARTCHAR 0424
ENCODING 1060
SWIDTH 402 0
DWIDTH 29 0
BBX 27 57 0 8
BITMAP
0FFFFE00
30000180
40000040
80000020
80000020
80000020
80000020
80000020
80C06020
81406020
81406020
81406020
81406020
81406020
81406020
81406020
81406020
81406020
81406020
81406020
81406020
81406020
81406020
81406020
80C06020
80404020
80404020
80000020
40000040
20000080
10000100
0C000600
02000800
01001000
00802000
00404000
00404000
00404000
00404000
00404000
00404000
00404000
00404000
00404000
00404000
00404000
00404000
01C04000
00804000
00604000
00104000
00084000
00044000
00034000
0000C000
00004000
00002000
ENDCHAR
STARTCHAR 0425
ENCODING 1061
SWIDTH 333 0
DWIDTH 24 0
BBX 25 59 -1 6
BITMAP
FFC1FF80
40410100
40410200
40410200
40410200
40410200
40410200
40410200
40410200
40410200
40410200
40410200
40410200
40410200
40410200
40220200
40140200
40080200
40000200
30000400
08000800
04001000
03006000
06003000
08000800
10000400
60000200
40080200
40140200
40230200
40410200
40410200
40410200
40410200
40410200
40410200
40410200
40410200
40410200
40410200
40410200
40410200
60410200
10410200
08410200
06410200
01410200
00C10200
00010200
00010200
00020200
00020200
00010200
0000C200
00002200
00001900
00000500
00000300
00000100
ENDCHAR
STARTCHAR 0426
ENCODING 1062
SWIDTH 319 0
DWIDTH 23 0
BBX 25 63 -1 2
BITMAP
FFC3FF80
40420100
40420200
40420200
40420200
40420200
40420200
40420200
40420200
40420200
40420200
40420200
40420200
40420200
40420200
40420200
40420200
40420200
40420200
40420200
40420200
40420200
40420200
40420200
40420200
40420200
40420200
40420200
40420200
40420200
40420200
40420200
40220200
40120200
400E0200
40020200
40000200
40000200
20000200
10000200
08000200
06000200
01000200
00800200
00400200
00200200
00100200
000C0200
00020200
00010200
00010200
00010200
00010100
00010100
00010100
00010100
00010180
0000C100
00002100
00001100
00000900
00000700
00000100
ENDCHAR
STARTCHAR 0427
ENCODING 1063
SWIDTH 333 0
DWIDTH 24 0
BBX 25 59 -1 7
BITMAP
FFC3FF80
40420100
40420200
40420200
40420200
40420200
40420200
40420200
40420200
40420200
40420200
40420200
40420200
40420200
40420200
40420200
40420200
40420200
40420200
40420200
40420200
40420200
40320200
400E0200
40020200
40000200
40000200
30000200
0C000200
02000200
01800200
00600200
00100200
000C0200
00020200
00020200
00020200
00020200
00020200
00020200
00020200
00020200
00020200
00020200
00020200
00020200
00020200
00020200
00020200
00020200
00040200
00020200
00018200
00004200
00003200
00000900
00000700
00000100
00000080
ENDCHAR
STARTCHAR 0428
ENCODING 1064
SWIDTH 388 0
DWIDTH 28 0
BBX 28 59 0 6
BITMAP
FF7FBFF0
8140A020
8140A040
8140A040
8140A040
8140A040
8140A040
8140A040
8140A040
8140A040
8140A040
8140A040
8140A040
8140A040
8140A040
8140A040
8140A040
8140A040
8140A040
8140A040
8140A040
8140A040
8140A040
8140A040
8140A040
8140A040
8140A040
8140A040
8140A040
8140A040
8140A040
8140A040
8140A040
8140A040
8140A040
81C0A040
8040A040
8000A040
8000A040
6000A040
1000A040
0800A040
04006040
03002040
00800040
00400040
00300040
00080040
00040040
00030040
00008040
00004040
00003040
00000840
00000440
00000220
000001A0
00000060
00000020
ENDCHAR
STARTCHAR 0429
ENCODING 1065
SWIDTH 388 0
DWIDTH 28 0
BBX 27 64 0 2
BITMAP
FF7FBFE0
8140A020
8140A040
8140A040
8140A040
8140A040
8140A040
8140A040
8140A040
8140A040
8140A040
8140A040
8140A040
8140A040
8140A040
8140A040
8140A040
8140A040
8140A040
8140A040
8140A040
8140A040
8140A040
8140A040
8140A040
8140A040
8140A040
8140A040
8140A040
8140A040
8140A040
8140A040
8140A040
8140A040
8140A040
8140A040
80C0A040
8000A040
8000A040
4000A040
3000A040
0800A040
04006040
03002040
00800040
00400040
00200040
00180040
00040040
00020040
00018040
00004040
00002040
00001040
00001040
00001040
00001020
00002020
00001820
00000420
00000320
000000A0
00000060
00000020
ENDCHAR
STARTCHAR 042A
ENCODING 1066
SWIDTH 388 0
DWIDTH 28 0
BBX 29 57 -1 8
BITMAP
FFFF0000
40020000
40040000
40040000
40040000
40040000
40040000
40040000
3C040000
04040000
04040000
04040000
04040000
04040000
04040000
04020000
04018000
04006000
04001800
04000600
04000180
04000060
04000010
04020010
04050010
0404C010
04043010
04041010
04041010
04041010
04041010
04041010
04041010
04021010
04019010
04005010
04003010
04001010
04000010
03000010
00800010
00400010
00200010
00180010
00040010
00020010
00018010
00004010
00002010
00001010
00000C10
00000210
00000110
00000090
00000070
00000018
00000008
ENDCHAR
STARTCHAR 042B
ENCODING 1067
SWIDTH 430 0
DWIDTH 31 0
BBX 32 58 -1 8
BITMAP
FFC003FF
40400201
40400202
40400202
40400202
40400202
40400202
40400202
40400202
40400202
40400202
40400202
40400202
40400202
40400202
40600202
40100202
400C0202
40030202
4000C202
40002202
40001A02
40000602
40400602
40700602
404C0602
40440602
40440602
40440602
40440602
40440602
40440602
40440602
40440602
40440602
40240602
40140602
400C0602
40000602
40000602
60000602
10000602
0C000602
03000602
00C00602
00300602
00080602
00060602
00018602
00006602
00001E02
00000602
00000102
000000C2
00000032
0000000A
00000006
00000001
ENDCHAR
STARTCHAR 042C
ENCODING 1068
SWIDTH 333 0
DWIDTH 24 0
BBX 25 57 -1 8
BITMAP
FFE00000
40400000
40400000
40400000
40400000
40400000
40400000
40400000
40400000
40400000
40400000
40400000
40400000
40400000
40400000
40600000
40180000
40060000
40018000
40004000
40003000
40000C00
40000200
40400200
40780200
40460200
40410200
40410200
40410200
40410200
40410200
40410200
40410200
40210200
40110200
40090200
40070200
40010200
40000200
20000200
18000200
04000200
02000200
01000200
00C00200
00200200
00100200
00080200
00060200
00010200
00008200
00004200
00003100
00000900
00000500
00000300
00000080
ENDCHAR
STARTCHAR 042D
ENCODING 1069
SWIDTH 333 0
DWIDTH 24 0
BBX 23 57 0 8
BITMAP
0FFFC0
100030
60000C
800004
800004
800004
800004
800004
80FC04
808404
8087FC
808000
808000
808000
808000
808000
80FF80
800080
800080
800080
800080
800080
800080
800080
800080
80FF80
808000
808000
808000
8083FC
808404
808404
808404
804404
802404
801C04
800404
800004
800004
400004
300004
080004
040004
020004
018004
004004
002004
001004
000C04
000204
000104
000084
000064
000012
00000A
000006
000002
ENDCHAR
STARTCHAR 042E
ENCODING 1070
SWIDTH 416 0
DWIDTH 30 0
BBX 31 57 -1 8
BITMAP
FFC7FFF0
40480008
40500008
40500004
40600002
40600002
40600002
40600002
40603C02
40602402
40602402
40602402
40602402
40602402
40602402
40602402
40602402
40602402
40602402
40602402
40602402
40002402
40002402
40002402
40002402
40002402
40002402
40002402
40602402
40602402
40602402
40602402
40602402
40602402
40602402
40602402
40602402
40602402
40602402
40602402
40602402
C0602402
20602802
10603002
0C603002
02602002
01600004
00E00004
00200008
00180010
00040020
00020040
00018040
00004080
00002100
00001A00
00000400
ENDCHAR
STARTCHAR 042F
ENCODING 1071
SWIDTH 319 0
DWIDTH 23 0
BBX 24 58 0 7
BITMAP
0FFFFF
100002
600004
800004
800004
800004
800004
800004
80FC04
808404
808404
808404
808404
808404
808404
804404
803404
800C04
C00004
200004
180004
060004
018004
020004
0C0004
300004
C00004
800404
801C04
806404
808404
808404
808404
808404
808404
808404
808404
808404
808404
808404
808404
808404
608404
108404
088404
068404
018404
008404
000404
000404
000804
000604
000104
0000C4
000024
000014
00000E
000002
ENDCHAR
STARTCHAR 0430
ENCODING 1072
SWIDTH 319 0
DWIDTH 23 0
BBX 23 44 0 21
BITMAP
1FFFF0
200008
400004
800002
800002
800002
800002
800002
80FC02
808402
808402
808402
808402
808402
808402
808402
808402
808402
808402
808402
808402
807802
800002
800002
800002
800002
800002
800002
800002
80FC02
808402
808402
808402
808402
808402
808402
808402
808404
608408
108430
088440
048480
038700
008400
ENDCHAR
STARTCHAR 0431
ENCODING 1073
SWIDTH 319 0
DWIDTH 23 0
BBX 23 45 0 20
BITMAP
FFFFFE
800002
800002
800002
800002
800002
800002
800002
80FFFE
808000
808000
808000
808000
808000
808000
806000
801800
800400
800300
8000C0
800020
800018
800006
808002
80E002
809002
808C02
808402
808402
808402
808402
808402
809802
80A002
80C002
808002
800006
800008
600010
100060
080080
040100
030600
008800
007000
ENDCHAR
STARTCHAR 0432
ENCODING 1074
SWIDTH 319 0
DWIDTH 23 0
BBX 23 45 0 20
BITMAP
1FFFF0
200008
400004
800002
800002
800002
800002
800002
80FC02
808402
808402
808402
808402
809802
80E002
808002
800004
800018
800060
8000C0
800020
800018
800006
808002
80E002
809002
808C02
808402
808402
808402
808402
808402
808802
80B002
80C002
808002
800006
800008
600010
100060
080080
040100
030600
008800
007000
ENDCHAR
STARTCHAR 0433
ENCODING 1075
SWIDTH 333 0
DWIDTH 24 0
BBX 23 44 0 21
BITMAP
FFFFFE
800002
800002
800002
800002
800002
800002
800002
80FFFE
808000
808000
808000
808000
808000
808000
808000
808000
808000
808000
808000
808000
808000
808000
808000
808000
808000
808000
808000
808000
808000
808000
808000
808000
808000
808000
808000
808000
808000
608000
108000
088000
048000
038000
008000
ENDCHAR
STARTCHAR 0434
ENCODING 1076
SWIDTH 402 0
DWIDTH 29 0
BBX 28 44 0 21
BITMAP
01FFFF80
02000080
02000080
04000080
08000080
10000080
10000080
10000080
10000080
10000080
100F8080
10088080
10108080
10108080
10108080
10108080
10108080
10108080
10108080
10108080
10108080
10108080
10108080
10108080
10108080
10108080
10108080
10108080
101F8080
10000080
F0000070
80000010
80000010
80000010
80000010
80000010
80000010
80FFF010
60801020
108010C0
08801100
04801200
03801C00
00801000
ENDCHAR
STARTCHAR 0435
ENCODING 1077
SWIDTH 319 0
DWIDTH 23 0
BBX 23 45 0 20
BITMAP
1FFFF0
200008
400004
800002
800002
800002
800002
800002
80FC02
808402
808402
808402
808402
8087FE
808000
80FC00
800400
800400
800400
800400
800400
800400
800400
800400
80FC00
808000
808000
8087FE
808402
808402
808402
808402
809802
80A002
80C002
808002
800006
800008
600010
100060
080080
040100
030600
008800
007000
ENDCHAR
STARTCHAR 0436
ENCODING 1078
SWIDTH 444 0
DWIDTH 32 0
BBX 31 43 0 22
BITMAP
FFDFF7FE
80601402
80601402
80601402
80601402
80601402
80601402
80601402
80601402
80601402
80601402
80601402
80601402
80201402
80201802
80001002
80000004
40000008
20000010
10000020
20000010
4000000C
80000002
80001002
80201802
80201402
80601402
80601402
80601402
80601402
80601402
80601402
80601402
80601402
80601402
80601402
C0601406
30601418
0C6014E0
03601700
00E01400
00183000
0007C000
ENDCHAR
STARTCHAR 0437
ENCODING 1079
SWIDTH 319 0
DWIDTH 23 0
BBX 23 45 0 20
BITMAP
1FFFF0
200008
400004
800002
800002
800002
800002
800002
80FC02
808402
FF8402
000402
000402
001802
006002
004002
004004
004018
004060
0040C0
004020
004018
004006
004002
006002
001002
000C02
000402
000402
000402
FF8402
808402
809802
80A002
80C002
808002
800006
800008
600010
100060
080080
040100
030600
008800
007000
ENDCHAR
STARTCHAR 0438
ENCODING 1080
SWIDTH 319 0
DWIDTH 23 0
BBX 23 44 0 21
BITMAP
FF87FE
808802
808802
808802
809002
809002
809002
80A002
80A002
80A002
80C002
80C002
80C002
808002
808002
808002
800002
800002
800002
800002
800002
800002
800002
800002
800002
800402
800402
800402
800402
800C02
800C02
801402
801402
801402
801402
802402
802402
802404
404408
304430
084440
048480
028700
018400
ENDCHAR
STARTCHAR 0439
ENCODING 1081
SWIDTH 319 0
DWIDTH 23 0
BBX 23 55 0 20
BITMAP
FFFFFC
800004
800004
800004
800004
800004
800004
800004
800004
FFFFFC
000000
FF87FE
808802
808802
808802
809002
809002
809002
80A002
80A002
80A002
80C002
80C002
80C002
808002
808002
808002
800002
800002
800002
800002
800002
800002
800002
800002
800002
800402
800402
800402
800402
800C02
800C02
801402
801402
801402
801402
802402
802402
802404
404408
304430
084440
048480
028700
018400
ENDCHAR
STARTCHAR 043A
ENCODING 1082
SWIDTH 319 0
DWIDTH 23 0
BBX 23 43 0 22
BITMAP
FF87FE
808402
808402
808402
808402
808402
808402
808402
808402
808402
808402
808402
808402
809802
80E002
808002
800004
800018
800060
8000C0
800020
800018
800006
808002
80E002
809002
808C02
808402
808402
808402
808402
808402
808402
808402
808402
808402
808406
C08408
208410
188460
048480
038700
008400
ENDCHAR
STARTCHAR 043B
ENCODING 1083
SWIDTH 319 0
DWIDTH 23 0
BBX 23 44 0 21
BITMAP
0FFFFE
100002
100002
200002
400002
800002
800002
800002
800002
800002
803C02
804402
808402
808402
808402
808402
808402
808402
808402
808402
808402
808402
808402
808402
808402
808402
808402
808402
808402
808402
808402
808402
808402
808402
808402
808402
808402
808404
608408
108430
088440
048480
038700
008400
ENDCHAR
STARTCHAR 043C
ENCODING 1084
SWIDTH 444 0
DWIDTH 32 0
BBX 31 43 0 22
BITMAP
FFC007FE
80400802
80200802
80201002
80201002
80102002
80102002
80084002
80084002
80048002
80048002
80050002
80030002
80000002
80000002
80000002
80000002
80000002
80000002
80000002
80000002
80000402
80400402
80400C02
80600C02
80601402
80601402
80501402
80502402
80482402
80484402
80444402
80444402
80428402
80428402
80410402
80410406
60400408
10400410
08400460
06400480
01400700
00C00400
ENDCHAR
STARTCHAR 043D
ENCODING 1085
SWIDTH 319 0
DWIDTH 23 0
BBX 23 44 0 21
BITMAP
FF87FE
808402
808402
808402
808402
808402
808402
808402
808402
808402
808402
808402
808402
808402
808402
808402
807802
800002
800002
800002
800002
800002
800002
800002
800002
800002
80FC02
808402
808402
808402
808402
808402
808402
808402
808402
808402
808402
808404
608408
108430
088440
048480
038700
008400
ENDCHAR
STARTCHAR 043E
ENCODING 1086
SWIDTH 319 0
DWIDTH 23 0
BBX 23 45 0 20
BITMAP
1FFFF0
200008
400004
800002
800002
800002
800002
800002
80FC02
808402
808402
808402
808402
808402
808402
808402
808402
808402
808402
808402
808402
808402
808402
808402
808402
808402
808402
808402
808402
808402
808402
808402
809802
80A002
80C002
808002
800006
800008
600010
100060
080080
040100
030600
008800
007000
ENDCHAR
STARTCHAR 043F
ENCODING 1087
SWIDTH 319 0
DWIDTH 23 0
BBX 23 44 0 21
BITMAP
FFFFFE
800002
800002
800002
800002
800002
800002
800002
800002
800002
80FC02
808402
808402
808402
808402
808402
808402
808402
808402
808402
808402
808402
808402
808402
808402
808402
808402
808402
808402
808402
808402
808402
808402
808402
808402
808402
808402
808404
608408
108430
088440
048480
038700
008400
ENDCHAR
STARTCHAR 0440
ENCODING 1088
SWIDTH 319 0
DWIDTH 23 0
BBX 23 44 0 21
BITMAP
3FFFF0
200008
400004
800002
800002
800002
800002
800002
807C02
808402
808402
808402
808402
808402
808402
808802
809002
806002
800002
800002
80000C
800010
800020
8000C0
800100
800200
800C00
801000
806000
808000
808000
808000
808000
808000
808000
808000
808000
808000
608000
108000
088000
068000
018000
008000
ENDCHAR
STARTCHAR 0441
ENCODING 1089
SWIDTH 319 0
DWIDTH 23 0
BBX 23 45 0 20
BITMAP
1FFFF0
200008
400004
800002
800002
800002
800002
800002
80FC02
808402
808402
808402
808402
8087FE
808000
808000
808000
808000
808000
808000
808000
808000
808000
808000
808000
808000
808000
8087FE
808402
808402
808402
808402
809802
80A002
80C002
808002
800006
800008
600010
100060
080080
040100
030600
008800
007000
ENDCHAR
STARTCHAR 0442
ENCODING 1090
SWIDTH 319 0
DWIDTH 23 0
BBX 22 44 0 21
BITMAP
FFFFFC
800004
800004
800004
800004
800004
800004
800004
800004
800004
FE01FC
020100
020100
020100
020100
020100
020100
020100
020100
020100
020100
020100
020100
020100
020100
020100
020100
020100
020100
020100
020100
020100
020100
020100
020100
020100
020100
010100
008100
004100
003100
000900
000500
000300
ENDCHAR
STARTCHAR 0443
ENCODING 1091
SWIDTH 319 0
DWIDTH 23 0
BBX 23 45 0 20
BITMAP
FF87FE
808402
808402
808402
808402
808402
808402
808402
808402
808402
808402
808402
808402
808402
807802
800002
800002
800002
800002
800002
800002
800002
800002
800002
7FFC02
000402
000402
FF8402
808402
808402
808402
808402
809802
80A002
80C002
808002
800006
800008
600010
100060
080080
040100
030600
008800
007000
ENDCHAR
STARTCHAR 0444
ENCODING 1092
SWIDTH 513 0
DWIDTH 37 0
BBX 36 44 0 21
BITMAP
1FFFFFFF80
2000000040
4000000020
8000000010
8000000010
8000000010
8000000010
8000000010
80FC03F010
8084021010
8084021010
8084021010
8084021010
8084021010
8084021010
8064026010
8014028010
800C030010
8004020010
8000000010
4000000020
20000000C0
1800000100
0400000200
0300000C00
0080001000
0040006000
0030008000
0008010000
0004020000
0004020000
0004020000
0004020000
0004020000
0004020000
0004020000
0004020000
0004040000
0004080000
0004100000
0004600000
0004800000
0005000000
0006000000
ENDCHAR
STARTCHAR 0445
ENCODING 1093
SWIDTH 333 0
DWIDTH 24 0
BBX 23 43 0 22
BITMAP
FFC3FE
804402
804402
804402
804402
804402
804402
804402
804402
804402
804402
804402
804402
803802
800002
800002
C00006
200008
180030
040040
180030
60000C
800002
800002
800002
803802
804402
804402
804402
804402
804402
804402
804402
804402
804402
804402
804402
60440C
104410
084420
0644C0
014500
00C200
ENDCHAR
STARTCHAR 0446
ENCODING 1094
SWIDTH 319 0
DWIDTH 23 0
BBX 23 47 0 19
BITMAP
FF87FE
808402
808402
808402
808402
808402
808402
808402
808402
808402
808402
808402
808402
808402
808402
808402
808402
808402
808402
808402
808402
808402
808402
808402
808402
808402
808402
808402
808402
808402
808402
808402
806402
801402
800C02
800402
800002
800002
600002
100002
0800C2
040122
030612
00880A
007006
000006
000002
ENDCHAR
STARTCHAR 0447
ENCODING 1095
SWIDTH 319 0
DWIDTH 23 0
BBX 23 44 0 21
BITMAP
FF87FE
808402
808402
808402
808402
808402
808402
808402
808402
808402
808402
808402
808402
808402
804402
802402
801C02
800402
800002
C00002
200002
100002
0C0002
020002
010002
00C002
002002
001802
000402
000402
000402
000402
000402
000402
000402
000402
000402
000602
000102
000082
000062
000012
00000A
000006
ENDCHAR
STARTCHAR 0448
ENCODING 1096
SWIDTH 444 0
DWIDTH 32 0
BBX 31 43 0 22
BITMAP
FFDFF7FE
80601402
80601402
80601402
80601402
80601402
80601402
80601402
80601402
80601402
80601402
80601402
80601402
80601402
80601402
80601402
80601402
80601402
80601402
80601402
80601402
80601402
80601402
80601402
80601402
80601402
80601402
80601402
80601402
80601402
80601802
80000002
80000002
80000002
80000002
80000002
C0000006
30000018
0C0000E0
03000300
00E00C00
00183000
0007C000
ENDCHAR
STARTCHAR 0449
ENCODING 1097
SWIDTH 444 0
DWIDTH 32 0
BBX 31 47 0 19
BITMAP
FFDFF7FE
80601402
80601402
80601402
80601402
80601402
80601402
80601402
80601402
80601402
80601402
80601402
80601402
80601402
80601402
80601402
80601402
80601402
80601402
80601402
80601402
80601402
80601402
80601402
80601402
80601402
80601402
80601402
80601402
80601402
80601802
80000002
80000002
80000002
80000002
80000002
C0000002
30000002
0C000002
03000382
00E00C42
00183022
0007C012
0000000A
00000006
00000006
00000002
ENDCHAR
STARTCHAR 044A
ENCODING 1098
SWIDTH 388 0
DWIDTH 28 0
BBX 28 45 0 20
BITMAP
1FFC0000
20040000
40040000
80040000
80040000
80040000
80040000
80040000
80040000
80040000
FC040000
04040000
04040000
04040000
04040000
04030000
0400C000
04002000
04001800
04000600
04000180
04000040
04000030
04020010
04030010
0402C010
04023010
04021010
04021010
04021010
04021010
04022010
04024010
04028010
04030010
04020010
04000030
04000040
03000080
00800300
00400400
00200800
00183000
00044000
00038000
ENDCHAR
STARTCHAR 044B
ENCODING 1099
SWIDTH 444 0
DWIDTH 32 0
BBX 31 41 0 25
BITMAP
FFC007FE
80400402
80400402
80400402
80400402
80400402
80400402
80400402
80400402
80400402
80400402
80600402
80100402
800C0402
80030402
8000C402
80002402
80001402
80001402
80001402
80601402
80601402
80601402
80601402
80601402
80601402
80601402
80601402
80601402
80601402
80601402
80001402
80001402
80001402
80001402
80001402
E0001406
1F001418
00F814E0
00079700
00007400
ENDCHAR
STARTCHAR 044C
ENCODING 1100
SWIDTH 319 0
DWIDTH 23 0
BBX 23 45 0 20
BITMAP
FF8000
808000
808000
808000
808000
808000
808000
808000
808000
808000
808000
808000
808000
808000
808000
806000
801800
800400
800300
8000C0
800020
800018
800006
808002
80E002
809002
808C02
808402
808402
808402
808402
808402
809802
80A002
80C002
808002
800006
800008
600010
100060
080080
040100
030600
008800
007000
ENDCHAR
STARTCHAR 044D
ENCODING 1101
SWIDTH 319 0
DWIDTH 23 0
BBX 23 45 0 20
BITMAP
1FFFF0
200008
400004
800002
800002
800002
800002
800002
807C02
808402
808402
808402
808402
FF8402
000402
007C02
004002
004002
004002
004002
004002
004002
004002
004002
007C02
000402
000402
FF8402
808402
808402
808402
808402
808802
809002
806002
800002
800002
600004
100008
080010
060060
010080
008100
006200
001C00
ENDCHAR
STARTCHAR 044E
ENCODING 1102
SWIDTH 430 0
DWIDTH 31 0
BBX 30 46 0 20
BITMAP
FF8FFFE0
80900010
80A00008
80C00004
80C00004
80C00004
80C00004
80C00004
80C03804
80C04804
80C04804
80C04804
80C04804
80C04804
80C04804
80C04804
80004804
80004804
80004804
80004804
80004804
80004804
80004804
80004804
80004804
80004804
80C04804
80C04804
80C04804
80C04804
80C04804
80C04804
80C04804
80C04804
80C03004
80C00004
80C0000C
80A00010
40900020
208800C0
108C0100
08860200
04830C00
02819000
0180E000
00804000
ENDCHAR
STARTCHAR 044F
ENCODING 1103
SWIDTH 319 0
DWIDTH 23 0
BBX 23 43 0 22
BITMAP
3FFFF8
400008
400004
800002
800002
800002
800002
800002
807C02
808402
808402
808402
804402
803402
800C02
800402
800002
600002
180002
040002
180002
600002
800002
800402
800C02
803402
804402
808402
808402
808402
808402
808402
808402
808402
808402
808402
808402
608404
108418
088420
0684C0
018500
008200
ENDCHAR
STARTCHAR 0451
ENCODING 1105
SWIDTH 319 0
DWIDTH 23 0
BBX 23 56 0 19
BITMAP
7FCFFC
404804
404804
404804
404804
404804
404804
404804
404804
7FCFFC
000000
1FFFF0
200008
400004
800002
800002
800002
800002
800002
80FC02
808402
808402
808402
808402
8087FE
808000
80FC00
800400
800400
800400
800400
800400
800400
800400
800400
80FC00
808000
808000
8087FE
808402
808402
808402
808402
809802
80A002
80C002
808002
800006
800008
600010
100060
080080
040100
030600
008800
007000
ENDCHAR
STARTCHAR 0454
ENCODING 1108
SWIDTH 319 0
DWIDTH 23 0
BBX 23 45 0 20
BITMAP
1FFFF0
200008
400004
800002
800002
800002
800002
800002
80FC02
808402
808402
808402
808402
8087FE
808000
80FC00
800400
800400
800400
800400
800400
800400
800400
800400
80FC00
808000
808000
8087FE
808402
808402
808402
808402
806402
801402
800C02
800402
800006
800008
600010
100060
080080
040100
030600
008800
007000
ENDCHAR
STARTCHAR 0457
ENCODING 1111
SWIDTH 138 0
DWIDTH 10 0
BBX 21 53 -6 21
BITMAP
FFCFF8
805008
805008
805008
805008
805008
805008
805008
FFCFF8
000000
03FF00
020100
020100
020100
020100
020100
020100
020100
020100
020100
020100
020100
020100
020100
020100
020100
020100
020100
020100
020100
020100
020100
020100
020100
020100
020100
020100
020100
020100
020100
020100
020100
020100
020100
020100
020100
020100
018100
004100
002100
001900
000500
000300
ENDCHAR
STARTCHAR 045D
ENCODING 1117
SWIDTH 250 0
DWIDTH 18 0
BBX 0 0 0 0
BITMAP
ENDCHAR
STARTCHAR 045E
ENCODING 1118
SWIDTH 319 0
DWIDTH 23 0
BBX 23 56 0 19
BITMAP
FFFFFC
800004
800004
800004
800004
800004
800004
800004
800004
FFFFFC
000000
FF87FE
808402
808402
808402
808402
808402
808402
808402
808402
808402
808402
808402
808402
808402
807802
800002
800002
800002
800002
800002
800002
800002
800002
800002
7FFC02
000402
000402
FF8402
808402
808402
808402
808402
809802
80A002
80C002
808002
800006
800008
600010
100060
080080
040100
030600
008800
007000
ENDCHAR
STARTCHAR 045F
ENCODING 1119
SWIDTH 319 0
DWIDTH 23 0
BBX 23 51 0 14
BITMAP
FF87FE
808402
808402
808402
808402
808402
808402
808402
808402
808402
808402
808402
808402
808402
808402
808402
808402
808402
808402
808402
808402
808402
808402
808402
808402
808402
808402
808402
808402
808402
808402
808402
808802
80B002
80C002
808002
800006
800008
600010
100060
080080
060100
020100
020100
020100
020100
020100
030100
008200
004400
003800
ENDCHAR
STARTCHAR 0490
ENCODING 1168
SWIDTH 333 0
DWIDTH 24 0
BBX 25 71 -1 6
BITMAP
00000800
00001800
00002800
0000D000
00011000
00061000
00081000
00101000
00101000
00081000
00081000
00081000
FFF80F80
40000100
40000200
40000200
40000200
40000200
40000200
40000200
407E0200
40420200
4043FE00
40400000
40400000
40400000
40400000
40400000
40400000
40400000
40400000
40400000
40400000
40400000
40400000
40400000
40400000
40400000
40400000
40400000
40400000
40400000
40400000
40400000
40400000
40400000
40400000
40400000
40400000
40400000
40400000
40400000
40400000
40400000
40400000
40400000
40400000
40400000
40400000
40400000
40400000
40400000
40400000
80400000
60400000
10400000
0C400000
02400000
01400000
00C00000
00200000
ENDCHAR
STARTCHAR 0491
ENCODING 1169
SWIDTH 319 0
DWIDTH 23 0
BBX 23 55 0 21
BITMAP
000010
000030
000050
000190
000210
000410
000810
001010
001010
001010
001010
FFF01E
800002
800002
800002
800002
800002
800002
800002
80FFFE
808000
808000
808000
808000
808000
808000
808000
808000
808000
808000
808000
808000
808000
808000
808000
808000
808000
808000
808000
808000
808000
808000
808000
808000
808000
808000
808000
808000
808000
608000
108000
088000
048000
038000
008000
ENDCHAR
STARTCHAR 2018
ENCODING 8216
SWIDTH 152 0
DWIDTH 11 0
BBX 11 16 -1 49
BITMAP
C000
A000
9000
4800
4600
4100
4080
4060
4040
4040
4040
4040
4040
4040
4040
7FC0
ENDCHAR
STARTCHAR 2019
ENCODING 8217
SWIDTH 152 0
DWIDTH 11 0
BBX 11 16 -1 49
BITMAP
7FC0
4040
4040
4040
4040
4040
4040
4040
4060
4080
4100
4200
4C00
5000
A000
C000
ENDCHAR
STARTCHAR 201C
ENCODING 8220
SWIDTH 277 0
DWIDTH 20 0
BBX 21 16 -1 49
BITMAP
7FDFF0
405010
405010
405010
405010
405010
405010
806010
C07010
204810
104410
084210
064190
014050
00C030
006018
ENDCHAR
STARTCHAR 201D
ENCODING 8221
SWIDTH 277 0
DWIDTH 20 0
BBX 21 16 -1 49
BITMAP
7FDFF0
405010
405010
405010
405010
405010
405010
405008
407018
409020
411040
421080
4C1300
501400
A02800
C03000
ENDCHAR
STARTCHAR 201E
ENCODING 8222
SWIDTH 277 0
DWIDTH 20 0
BBX 21 16 -1 18
BITMAP
7FDFF0
405010
405010
405010
405010
405010
405010
407008
407018
409020
411040
461080
481300
901400
A02800
C03000
ENDCHAR
STARTCHAR 2116
ENCODING 8470
SWIDTH 527 0
DWIDTH 38 0
BBX 37 44 0 21
BITMAP
FFC3FE0000
8044020000
8044020000
8024020000
8024020000
8024020000
8014020000
8014020000
8014027FC0
800C028040
800C028040
800C028040
8004028040
8004028040
8004028040
8000028040
8000027F80
8000020000
800003FFF8
8000020008
8000020008
8000020008
8000020008
8000020008
8000020008
800003FFF8
8080020000
8040020000
8040020000
8040020000
80A0020000
80A0020000
80A0020000
80A0020000
8090020000
8090020000
8090020000
8088040000
6088080000
1088100000
0884200000
0684C00000
0185000000
0082000000
ENDCHAR
ENDFONT
